<?xml version="1.0" standalone="no"?>
<!DOCTYPE svg PUBLIC "-//W3C//DTD SVG 20010904//EN"
 "http://www.w3.org/TR/2001/REC-SVG-20010904/DTD/svg10.dtd">
<svg version="1.0" xmlns="http://www.w3.org/2000/svg"
 width="700.000000pt" height="700.000000pt" viewBox="0 0 700.000000 700.000000"
 preserveAspectRatio="xMidYMid meet">
<metadata>
Created by potrace 1.14, written by Peter Selinger 2001-2017
</metadata>
<g transform="translate(0.000000,700.000000) scale(0.100000,-0.100000)"
fill="#000000" stroke="none">
<path d="M3278 6996 c-1 -2 -41 -6 -88 -10 -47 -4 -101 -9 -120 -12 -139 -19
-252 -40 -360 -66 -69 -16 -133 -31 -143 -33 -10 -2 -69 -21 -130 -41 -999
-325 -1786 -1054 -2180 -2020 -62 -151 -133 -369 -153 -467 -2 -10 -6 -27 -9
-37 -3 -10 -8 -29 -10 -42 -3 -13 -11 -57 -20 -98 -22 -115 -30 -160 -41 -255
-26 -230 -26 -662 1 -827 2 -13 6 -45 10 -73 12 -98 23 -161 50 -285 65 -302
204 -664 362 -943 224 -397 514 -734 896 -1043 79 -64 259 -188 343 -235 l29
-17 0 2404 c0 2033 2 2405 14 2409 16 6 16 7 117 -91 44 -41 113 -107 154
-146 41 -39 149 -142 240 -228 91 -87 188 -180 216 -207 122 -115 406 -385
484 -460 47 -44 110 -104 140 -133 30 -29 126 -120 214 -204 87 -83 169 -161
183 -173 l24 -23 23 23 c22 21 299 285 391 372 44 42 362 345 425 405 36 35
304 289 404 384 28 26 128 121 221 211 287 274 296 282 312 272 4 -3 8 -535 8
-1182 0 -774 3 -1179 10 -1185 5 -4 37 -14 70 -23 66 -16 430 -116 650 -177
297 -83 331 -92 348 -95 10 -2 82 -22 160 -44 190 -53 231 -64 239 -65 3 -1 9
-4 12 -7 5 -5 -65 -26 -214 -64 -8 -2 -71 -20 -140 -40 -69 -19 -134 -37 -145
-39 -11 -3 -69 -19 -130 -35 -60 -17 -166 -47 -235 -66 -69 -18 -206 -56 -305
-83 -99 -27 -189 -52 -200 -55 -11 -3 -43 -12 -70 -20 l-50 -14 0 410 0 410
-65 18 c-301 83 -1069 291 -1083 294 -20 4 -379 102 -409 111 -17 5 -18 -39
-18 -836 0 -797 1 -841 18 -836 17 6 355 97 837 227 143 39 334 91 425 115 91
25 172 47 180 49 8 2 31 9 50 14 71 22 65 96 65 -785 0 -438 2 -799 5 -804 6
-10 246 150 366 244 268 210 484 436 690 721 90 124 96 133 195 304 167 291
312 664 375 966 16 79 54 301 59 350 4 33 9 71 11 85 9 47 11 525 4 605 -15
155 -21 210 -25 225 -2 8 -7 35 -10 60 -15 117 -78 375 -125 520 -291 883
-916 1616 -1730 2032 -94 48 -133 66 -275 128 -197 86 -559 187 -765 215 -19
3 -46 7 -60 10 -13 2 -52 7 -86 11 -33 3 -74 8 -90 10 -33 5 -540 14 -546 10z"/>
</g>
</svg>
