<?xml version="1.0" encoding="UTF-8"?><svg xmlns="http://www.w3.org/2000/svg" width="1024" height="1024" xmlns:xlink="http://www.w3.org/1999/xlink" viewBox="0 0 1024 1024"><defs><linearGradient id="blue-gradient" x1="149.961" y1="874.039" x2="874.039" y2="149.961" gradientUnits="userSpaceOnUse"><stop offset="0" stop-color="#cce0f4"/><stop offset=".25" stop-color="#80ccff"/><stop offset=".55" stop-color="#09f"/><stop offset=".8" stop-color="#007acc"/><stop offset="1" stop-color="#004d80"/></linearGradient><filter id="luminosity-invert" x="-120" y="-104.16" width="1248" height="1248.24" color-interpolation-filters="sRGB" filterUnits="userSpaceOnUse"><feColorMatrix result="cm" values="-1 0 0 0 1 0 -1 0 0 1 0 0 -1 0 1 0 0 0 1 0"/></filter><linearGradient id="gray-gradient" x1="149.961" y1="874.039" x2="874.039" y2="149.961" gradientUnits="userSpaceOnUse"><stop offset="0" stop-color="#262626"/><stop offset=".25" stop-color="#333"/><stop offset=".55" stop-color="#404040"/><stop offset=".8" stop-color="#595959"/><stop offset="1" stop-color="#737373"/></linearGradient><mask id="mask" x="-120" y="-104.16" width="1248" height="1248.24" maskUnits="userSpaceOnUse"><g style="filter:url(#luminosity-invert);"><circle id="gray-mask" cx="512" cy="512" r="512" style="fill:url(#gray-gradient); stroke-width:0px;"/></g></mask><filter id="drop-shadow-1" filterUnits="userSpaceOnUse"><feOffset dx="-8" dy="8"/><feGaussianBlur result="blur" stdDeviation="16"/><feFlood flood-color="#000" flood-opacity=".8"/><feComposite in2="blur" operator="in"/><feComposite in="SourceGraphic"/></filter><filter id="luminosity-invert-2" x="-47.561" y="0" width="1071.561" height="1322.242" color-interpolation-filters="sRGB" filterUnits="userSpaceOnUse"><feColorMatrix result="cm" values="-1 0 0 0 1 0 -1 0 0 1 0 0 -1 0 1 0 0 0 1 0"/></filter><mask id="mask-1" x="-47.561" y="0" width="1071.561" height="1322.242" maskUnits="userSpaceOnUse"><g style="filter:url(#luminosity-invert-2);"><circle id="green-mask" cx="512" cy="512" r="512" style="stroke-width:0px;"/></g></mask><pattern id="_Джайв" x="0" y="0" width="108.339" height="109.642" patternUnits="userSpaceOnUse" viewBox="0 0 108.339 109.642"><rect width="108.339" height="109.642" style="fill:none; stroke-width:0px;"/><path d="m87.475,144.336c.021-.119.125-.205.246-.207,12.906-.135,24.754-3.268,33.972-11.515-8.03,5.558-22.942,7.511-31.527,3.618-.11-.05-.169-.17-.142-.288.026-.118.133-.2.254-.196,10.68.289,19.279-3.007,25.984-8.965-6.869-.422-12.574-4.74-12.557-9.845,0-.119.084-.222.201-.247.116-.025.234.035.283.143,1.121,2.489,4.748,3.78,8.583,2.88,4.18-.98,7-4.189,6.301-7.165-.472-2.015-2.436-3.403-4.952-3.787-.127-.018-.22-.13-.217-.258.004-.128.103-.233.23-.245,1.068-.103,2.18-.106,3.317.002,6.49.617,11.514,4.596,11.949,9.178,4.712-.547,8.884-3.156,10.378-6.773.045-.108.16-.172.275-.154.115.019.203.114.213.23.377,4.752-1.258,7.839-4.97,10.854,5.384-2.06,11.444-2.165,17.255.538.105.049.164.164.143.279-.023.115-.123.199-.24.203-4.879.19-8.416,1.756-11.73,5.072,18.254-5.134,33.085,6.201,27.953,23.053-.035.115-.146.19-.268.178-.121-.012-.217-.108-.227-.229-.918-9.714-7.703-16.115-17.861-17.076,5.387,2.061,11,6.976,11.557,15.534.008.122-.072.233-.191.263-.119.029-.242-.029-.293-.141-2.799-6.154-8.297-9.266-14.16-9.812,6.334,2.58,10.396,8.602,11.57,16.42.02.123-.055.242-.174.279-.117.039-.246-.016-.303-.125-3.865-7.583-12.156-12.794-22.446-8.812-10.617,4.109-15.274,16.387-16.304,25.041-.015.121-.115.215-.238.223-.122.008-.232-.074-.261-.195-3.72-15.688,3.583-31.949,16.637-38.84-7.096,2.003-13.439,6.26-17.027,13.355-8.294,1.019-14.004,3.862-16.857,9.239-.057.107-.181.16-.296.125-.115-.033-.191-.145-.182-.266.183-2.109.941-6.33,4.074-8.271-6.965.011-12.506-.894-17.799-3.013-.111-.046-.177-.164-.154-.283Zm29.486,53.471c-.099-.066-.228-.055-.315.025-.086.082-.104.211-.046.312,1.62,2.797.141,6.814-3.051,6.814-5.721,0-8.471-10.77-7.596-20.594,2.163,5.756,4.033,8.055,7.348,10.795.094.078.228.078.322.002.094-.078.121-.209.063-.316-4.856-9.08-5.897-16.067-5.897-24.086,1.463,5.959,3.195,9.322,8.127,14.381.086.088.223.101.325.033.101-.07.139-.203.087-.316-5.298-11.59-4.894-24.447-.947-34.264.039-.098.015-.209-.062-.281-.077-.07-.189-.088-.285-.041-5.205,2.551-8.264,4.227-12.752,10.389,1.357,7.398.228,11.049-3.172,17.195,3.937-9.918,1.842-23.895-8.187-29.592-.109-.061-.248-.034-.324.065-.078.1-.071.241.016.332,3.781,3.955,6.531,10.635,4.156,17.928,1.529-10.389-7.596-19.115-17.779-19.115-9.6,0-16.15,7.51-15.609,14.941.537,7.365,5.443,10.969,9.672,12.498.111.039.236-.002.3-.102.063-.102.05-.231-.033-.316-5.61-5.691-6.378-16.492,3.583-19.76-5.859,5.057-3.689,16.83,5.689,17.725.117.012.227-.059.265-.17.038-.111-.005-.234-.104-.297-2.009-1.277-3.679-3.771-3.679-6.574,0-4.674,3.422-6.51,5.676-6.51,3.422,0,6.26,3.256,6.26,8.18,0,5.844-5.26,10.684-12.019,11.436-6.626.734-12.782-2.154-15.75-6.459-.069-.102-.201-.139-.313-.088-.112.051-.171.176-.141.295,3.018,11.703,16.796,16.877,26.888,9.506-6.613,7.502-17.006,7.605-25.722-.086-.091-.08-.226-.084-.322-.01-.097.072-.127.205-.073.312,2.667,5.408,9.253,11.82,18.605,10.885,8.557-.856,13.521-9.014,14.523-15.691.557,8.521-1.394,14.537-8.754,20.146-.097.074-.127.207-.072.316.055.108.18.162.297.129,6.785-1.961,12.23-5.426,15.049-12.545,0,6.162-2.139,12.373-7.525,16.512-.098.074-.127.205-.072.315.055.109.179.164.296.131,3.453-.984,6.171-2.488,8.138-5.186,1.31,11.1,6.521,17.691,12.525,17.691,4.125,0,7.205-3.033,7.205-7.871,0-2.83-1.488-6.803-4.811-9.019Zm99.226-91.619c-3.162-3.904-9.539-5.392-16.432-3.988.51-4.301-.334-8.791-1.611-11.484-.053-.109-.174-.167-.291-.139-.117.029-.197.137-.193.258.375,8.767-4.623,15.844-13.449,18.91,6.906-4.756,8.926-14.193,5.639-19.066-.068-.099-.195-.138-.307-.092-.111.045-.176.162-.154.279.373,2.061-.605,4.685-2.713,6.727-2.906,2.814-6.85,3.453-8.811,1.43-1.961-2.025-1.197-5.947,1.707-8.762,1.061-1.027,2.26-1.762,3.449-2.185.113-.04.182-.153.166-.271-.014-.119-.109-.211-.228-.221-6.389-.555-10.77,3.252-13.515,7.878-2.795,4.705-7.57,8.41-13.211,7.67-.119-.016-.233.055-.274.168-.039.113.006.24.109.302,2.797,1.685,5.871,2.384,9.863,1.052-5.795,4.909-14.047,7.742-21.84,5.227-.109-.036-.228.007-.291.103-.062.097-.051.223.025.308,5.908,6.564,17.689,6.695,25.109,1.373-3.037,4.316-7.068,7.484-14.293,8.478-.115.016-.205.107-.219.223-.012.116.055.226.164.266,8.291,3.078,16.6-.045,23.444-8.215-2.992,6.377-7.905,11.484-14.767,14.012-.115.042-.184.16-.162.279.019.121.123.21.244.213,3.943.081,7.486-.858,12.265-3.57-3.508,5.689-2.74,15.639,2.369,22.258.07.092.195.124.303.078.105-.047.168-.159.148-.273-1.18-7.201,1.299-15.33,5.609-19.643-2.152,7.632-.006,14.576,5.897,19.645.07.061.17.077.256.044.088-.033.148-.112.162-.204,1.234-9.418,11.769-18.975,20.602-19.775.125-.011.223-.111.23-.235.008-.124-.074-.237-.197-.265-4.279-.969-8.691-.49-12.389,1.031,2.66-2.934,5.939-5.111,9.555-6.246.117-.036.189-.15.176-.271-.014-.121-.113-.215-.234-.224-4.51-.311-8.924,1.006-12.73,3.538,4.361-6.621,10.98-11.545,19.428-13.506.121-.028.203-.139.197-.263-.008-.124-.103-.224-.227-.237-11.918-1.302-21.746,3.318-28.221,11.918,1.648-4.9,6.365-9.756,12.945-12.619,5.846-2.545,11.85-2.946,16.422-1.51.105.033.223-.007.285-.1.062-.092.059-.215-.012-.303Zm-52.903,75.572c4.807-10.486,4.465-18.686.594-29.055-.045-.117-.166-.184-.289-.16-.123.025-.209.137-.203.262.621,12.621-2.826,21.654-10.299,27.807,8.25-9.852,4.354-29.56-8.822-29.56-9.586,0-17.516,7.975-19.455,17.524-.024.121.042.244.158.287.115.045.246,0,.309-.105,2.843-4.762,7.409-7.851,12.457-7.851,8.135,0,10.541,6.467,10.541,10.998,0,6.188-4.926,11.344-8.707,11.344-3.438,0-5.041-2.824-5.041-4.928,0-3.898,2.998-7.166,6.377-8.164.119-.035.197-.154.18-.279-.02-.125-.125-.217-.25-.219-4.106-.025-7.577,1.856-9.63,5.568-.269-2.875-.272-4.686.641-7.723.035-.117-.018-.242-.126-.299-.109-.057-.242-.027-.316.068-7.356,9.393-3.836,25.625,1.979,32.358-5.531-3.983-10.416-12.633-10.339-24.393,0-.123-.085-.227-.205-.25-.12-.025-.239.041-.284.154-4.108,10.252-1.929,29.248,9.281,39.852-2.884.396-5.867.346-9.125-.693-.115-.035-.24.014-.299.119-.059.107-.035.24.058.318,4.092,3.455,9.814,4.541,15.266,4.541-4.697-5.5-3.137-16.555,4.355-16.555,5.348,0,7.775,8.299,3.646,12.781-.078.086-.088.215-.025.311.065.098.186.141.297.102,4.779-1.654,9.945-5.789,9.945-11.016,0-5.043-4.812-9.394-11.801-9.051,8.818-2.506,18.051.267,22.881,6.252.074.094.205.121.31.068.107-.055.162-.176.133-.291-2.791-10.717-11.967-15.199-23.439-13.707,9.281-3.756,23.25-.48,29.423,7.311.072.092.199.121.307.072.105-.051.164-.168.141-.281-1.371-6.615-4.862-11.562-10.622-13.518Z" style="fill:#00427e; stroke-width:0px;"/><path d="m189.665,162.473c-.021.119-.125.207-.246.207-12.906.137-24.753,3.268-33.97,11.516,8.029-5.559,22.94-7.51,31.526-3.619.109.051.168.172.141.289-.025.117-.133.199-.254.197-10.68-.291-19.278,3.006-25.983,8.963,6.869.424,12.573,4.74,12.556,9.846,0,.119-.084.223-.201.248-.115.023-.234-.035-.283-.145-1.121-2.488-4.747-3.781-8.581-2.881-4.18.982-7,4.19-6.301,7.166.471,2.014,2.436,3.402,4.951,3.787.127.02.221.129.217.258-.004.127-.102.233-.23.246-1.068.102-2.18.105-3.316-.004-6.49-.617-11.514-4.594-11.949-9.178-4.713.547-8.885,3.158-10.379,6.773-.045.109-.158.172-.275.154-.115-.018-.203-.113-.213-.23-.377-4.75,1.258-7.838,4.971-10.854-5.385,2.059-11.445,2.164-17.256-.537-.105-.051-.164-.166-.142-.281.023-.115.123-.199.24-.203,4.879-.19,8.416-1.756,11.732-5.072-18.256,5.135-33.088-6.201-27.955-23.051.035-.117.146-.191.268-.18.121.012.217.107.227.229.918,9.715,7.703,16.117,17.861,17.076-5.387-2.059-11-6.975-11.557-15.533-.008-.123.072-.232.191-.264.119-.029.242.031.293.143,2.799,6.154,8.297,9.264,14.16,9.812-6.334-2.582-10.396-8.604-11.57-16.422-.019-.123.055-.24.174-.279.117-.037.246.016.303.127,3.865,7.582,12.156,12.793,22.447,8.81,10.617-4.109,15.273-16.385,16.303-25.039.016-.123.115-.217.238-.225.123-.006.232.076.262.195,3.719,15.689-3.584,31.949-16.637,38.84,7.096-2.002,13.439-6.26,17.027-13.354,8.293-1.018,14.003-3.863,16.856-9.24.057-.106.18-.158.295-.125.115.035.191.146.182.266-.182,2.109-.941,6.33-4.074,8.271,6.965-.012,12.506.893,17.799,3.014.111.045.178.162.154.281Zm-29.485-53.469c.1.064.229.055.316-.027.086-.08.104-.209.045-.312-1.619-2.797-.141-6.812,3.051-6.812,5.721,0,8.47,10.769,7.596,20.592-2.162-5.754-4.033-8.055-7.348-10.795-.094-.076-.228-.078-.322,0-.094.076-.121.209-.062.316,4.855,9.078,5.896,16.064,5.896,24.084-1.463-5.957-3.195-9.32-8.127-14.381-.086-.088-.223-.101-.324-.031-.101.07-.139.203-.088.314,5.299,11.592,4.895,24.447.947,34.264-.039.098-.014.209.062.281.078.072.189.088.285.043,5.205-2.551,8.264-4.227,12.751-10.391-1.357-7.398-.228-11.047,3.172-17.193-3.937,9.916-1.842,23.893,8.187,29.59.109.062.248.035.324-.065.078-.1.072-.24-.016-.332-3.781-3.955-6.531-10.635-4.156-17.926-1.529,10.389,7.596,19.113,17.779,19.113,9.6,0,16.15-7.508,15.609-14.939-.537-7.365-5.443-10.971-9.672-12.498-.111-.041-.236.002-.299.102-.064.1-.051.23.033.314,5.609,5.693,6.377,16.492-3.584,19.76,5.859-5.057,3.689-16.828-5.689-17.725-.117-.01-.227.06-.264.172-.039.109.004.233.103.295,2.008,1.279,3.678,3.771,3.678,6.574,0,4.674-3.422,6.512-5.676,6.512-3.422,0-6.26-3.256-6.26-8.182,0-5.842,5.26-10.684,12.02-11.434,6.627-.736,12.783,2.154,15.75,6.459.07.102.201.137.314.086.111-.051.17-.174.141-.293-3.02-11.703-16.797-16.877-26.889-9.508,6.613-7.5,17.006-7.605,25.723.086.09.08.225.086.322.012.096-.074.127-.205.072-.315-2.666-5.406-9.252-11.818-18.605-10.885-8.557.855-13.521,9.016-14.523,15.691-.557-8.521,1.395-14.535,8.754-20.144.098-.074.127-.207.072-.316s-.18-.164-.297-.129c-6.785,1.959-12.23,5.424-15.049,12.543,0-6.16,2.139-12.371,7.525-16.51.098-.074.127-.207.072-.316-.055-.107-.178-.162-.295-.129-3.453.982-6.172,2.488-8.139,5.184-1.311-11.1-6.52-17.69-12.524-17.69-4.125,0-7.205,3.033-7.205,7.869,0,2.83,1.488,6.803,4.81,9.021Zm-99.226,91.617c3.162,3.904,9.539,5.393,16.432,3.988-.51,4.303.334,8.791,1.611,11.486.053.107.174.166.291.137.117-.029.197-.137.193-.258-.375-8.766,4.623-15.842,13.449-18.908-6.906,4.756-8.926,14.193-5.639,19.064.068.1.195.139.307.094s.176-.162.154-.281c-.373-2.061.606-4.684,2.713-6.725,2.906-2.815,6.85-3.453,8.81-1.43,1.961,2.025,1.197,5.947-1.707,8.76-1.06,1.027-2.26,1.764-3.449,2.186-.113.041-.182.154-.166.271.014.119.109.211.228.221,6.389.555,10.769-3.252,13.516-7.877,2.795-4.705,7.57-8.412,13.211-7.672.119.016.232-.055.273-.168.039-.113-.006-.238-.109-.301-2.797-1.684-5.871-2.383-9.863-1.053,5.795-4.908,14.047-7.74,21.84-5.227.109.035.228-.008.291-.104s.053-.223-.025-.309c-5.908-6.564-17.69-6.695-25.109-1.371,3.037-4.316,7.068-7.486,14.293-8.479.115-.016.205-.109.219-.225.012-.115-.055-.225-.164-.266-8.291-3.076-16.6.045-23.445,8.217,2.992-6.379,7.906-11.486,14.767-14.014.115-.041.184-.158.162-.279-.02-.121-.123-.209-.244-.211-3.943-.082-7.486.857-12.266,3.57,3.508-5.691,2.74-15.639-2.369-22.26-.07-.092-.195-.123-.303-.078-.106.047-.168.16-.148.275,1.18,7.199-1.299,15.328-5.609,19.641,2.152-7.631.006-14.576-5.896-19.643-.07-.061-.17-.078-.256-.045-.088.033-.148.111-.162.203-1.234,9.418-11.77,18.975-20.602,19.775-.125.012-.223.111-.23.236s.074.236.197.264c4.279.969,8.691.49,12.389-1.029-2.66,2.932-5.939,5.109-9.555,6.244-.117.037-.19.15-.176.271.014.121.113.217.234.225,4.51.311,8.924-1.006,12.73-3.539-4.361,6.621-10.98,11.545-19.428,13.508-.121.027-.203.139-.197.262.008.123.103.223.227.236,11.918,1.303,21.746-3.318,28.221-11.918-1.648,4.902-6.365,9.756-12.945,12.619-5.846,2.545-11.85,2.947-16.422,1.51-.105-.033-.223.008-.285.1-.063.094-.059.217.012.303Zm52.904-75.572c-4.807,10.486-4.465,18.685-.594,29.055.045.117.166.186.289.16.123-.025.209-.137.203-.26-.621-12.623,2.826-21.654,10.299-27.809-8.25,9.854-4.353,29.56,8.822,29.56,9.586,0,17.516-7.977,19.455-17.525.025-.121-.041-.242-.158-.287-.115-.045-.246,0-.309.107-2.842,4.762-7.408,7.852-12.457,7.852-8.135,0-10.541-6.467-10.541-11,0-6.186,4.926-11.342,8.707-11.342,3.437,0,5.041,2.822,5.041,4.926,0,3.898-2.998,7.166-6.375,8.164-.121.037-.197.154-.18.279s.123.219.25.219c4.105.025,7.576-1.853,9.629-5.568.269,2.875.271,4.686-.641,7.725-.035.117.018.242.125.299.109.055.242.027.316-.07,7.357-9.393,3.836-25.623-1.978-32.357,5.531,3.982,10.416,12.635,10.34,24.395-.002.121.084.226.205.25.119.023.238-.041.283-.154,4.109-10.254,1.93-29.248-9.281-39.852,2.885-.398,5.867-.348,9.125.691.115.037.24-.014.299-.119.059-.106.035-.238-.059-.316-4.092-3.455-9.814-4.541-15.266-4.541,4.697,5.5,3.137,16.553-4.354,16.553-5.35,0-7.777-8.299-3.648-12.781.078-.086.088-.213.025-.311-.064-.098-.186-.139-.297-.102-4.779,1.656-9.945,5.789-9.945,11.018,0,5.041,4.812,9.395,11.803,9.051-8.82,2.504-18.053-.268-22.883-6.254-.074-.092-.205-.121-.31-.066-.107.053-.162.174-.133.291,2.791,10.715,11.967,15.199,23.439,13.705-9.281,3.758-23.25.482-29.424-7.309-.072-.092-.199-.123-.307-.072-.105.049-.164.166-.141.281,1.371,6.615,4.863,11.56,10.623,13.516Z" style="fill:#9ddcf9; opacity:.4; stroke-width:0px;"/><path d="m-20.864,144.336c.022-.119.125-.205.246-.207,12.906-.135,24.754-3.268,33.972-11.515-8.03,5.558-22.942,7.511-31.527,3.618-.11-.05-.169-.17-.142-.288.026-.118.133-.2.254-.196,10.68.289,19.279-3.007,25.984-8.965-6.869-.422-12.574-4.74-12.557-9.845,0-.119.084-.222.201-.247.116-.025.234.035.283.143,1.121,2.489,4.748,3.78,8.583,2.88,4.18-.98,7-4.189,6.301-7.165-.472-2.015-2.436-3.403-4.952-3.787-.127-.018-.22-.13-.217-.258.004-.128.102-.233.23-.245,1.068-.103,2.18-.106,3.317.002,6.49.617,11.514,4.596,11.949,9.178,4.712-.547,8.884-3.156,10.378-6.773.045-.108.16-.172.275-.154.115.019.203.114.213.23.377,4.752-1.258,7.839-4.97,10.854,5.384-2.06,11.444-2.165,17.255.538.105.049.164.164.143.279-.023.115-.123.199-.24.203-4.879.19-8.416,1.756-11.731,5.072,18.254-5.134,33.086,6.201,27.953,23.053-.035.115-.146.19-.268.178-.121-.012-.217-.108-.226-.229-.918-9.714-7.703-16.115-17.861-17.076,5.387,2.061,11,6.976,11.557,15.534.008.122-.072.233-.191.263-.119.029-.242-.029-.293-.141-2.799-6.154-8.297-9.266-14.16-9.812,6.334,2.58,10.396,8.602,11.57,16.42.02.123-.055.242-.174.279-.117.039-.246-.016-.303-.125-3.865-7.583-12.156-12.794-22.446-8.812-10.617,4.109-15.274,16.387-16.304,25.041-.015.121-.115.215-.238.223-.122.008-.232-.074-.261-.195-3.72-15.688,3.583-31.949,16.637-38.84-7.096,2.003-13.44,6.26-17.027,13.355-8.294,1.019-14.004,3.862-16.858,9.239-.057.107-.181.16-.296.125-.115-.033-.191-.145-.182-.266.183-2.109.941-6.33,4.074-8.271-6.965.011-12.506-.894-17.799-3.013-.111-.046-.177-.164-.154-.283Zm29.486,53.471c-.099-.066-.229-.055-.315.025-.086.082-.104.211-.046.312,1.62,2.797.141,6.814-3.051,6.814-5.721,0-8.471-10.77-7.596-20.594,2.163,5.756,4.033,8.055,7.348,10.795.094.078.229.078.322.002.094-.078.121-.209.064-.316-4.856-9.08-5.898-16.067-5.898-24.086,1.463,5.959,3.195,9.322,8.127,14.381.086.088.223.101.325.033.102-.07.139-.203.087-.316-5.298-11.59-4.894-24.447-.947-34.264.039-.098.015-.209-.062-.281-.077-.07-.189-.088-.285-.041-5.205,2.551-8.264,4.227-12.752,10.389,1.357,7.398.228,11.049-3.172,17.195,3.938-9.918,1.842-23.895-8.188-29.592-.109-.061-.248-.034-.324.065-.078.1-.071.241.016.332,3.781,3.955,6.531,10.635,4.156,17.928,1.529-10.389-7.596-19.115-17.779-19.115-9.6,0-16.15,7.51-15.609,14.941.537,7.365,5.443,10.969,9.672,12.498.111.039.236-.002.3-.102.064-.102.05-.231-.033-.316-5.61-5.691-6.378-16.492,3.583-19.76-5.859,5.057-3.689,16.83,5.69,17.725.117.012.226-.059.265-.17s-.005-.234-.104-.297c-2.009-1.277-3.679-3.771-3.679-6.574,0-4.674,3.422-6.51,5.676-6.51,3.422,0,6.26,3.256,6.26,8.18,0,5.844-5.26,10.684-12.019,11.436-6.626.734-12.782-2.154-15.75-6.459-.069-.102-.201-.139-.313-.088-.112.051-.171.176-.141.295,3.019,11.703,16.796,16.877,26.888,9.506-6.613,7.502-17.006,7.605-25.722-.086-.091-.08-.226-.084-.322-.01-.097.072-.127.205-.073.312,2.667,5.408,9.253,11.82,18.605,10.885,8.557-.856,13.522-9.014,14.523-15.691.557,8.521-1.393,14.537-8.754,20.146-.097.074-.127.207-.072.316.055.108.18.162.297.129,6.785-1.961,12.23-5.426,15.049-12.545,0,6.162-2.139,12.373-7.525,16.512-.098.074-.127.205-.072.315s.179.164.296.131c3.453-.984,6.171-2.488,8.138-5.186,1.31,11.1,6.521,17.691,12.525,17.691,4.125,0,7.205-3.033,7.205-7.871,0-2.83-1.488-6.803-4.811-9.019Zm99.227-91.619c-3.162-3.904-9.539-5.392-16.432-3.988.51-4.301-.334-8.791-1.611-11.484-.053-.109-.174-.167-.291-.139-.117.029-.197.137-.193.258.375,8.767-4.623,15.844-13.449,18.91,6.906-4.756,8.926-14.193,5.639-19.066-.068-.099-.195-.138-.307-.092-.111.045-.176.162-.154.279.373,2.061-.605,4.685-2.713,6.727-2.906,2.814-6.85,3.453-8.811,1.43-1.961-2.025-1.197-5.947,1.707-8.762,1.061-1.027,2.26-1.762,3.449-2.185.113-.04.182-.153.166-.271-.014-.119-.109-.211-.228-.221-6.389-.555-10.77,3.252-13.516,7.878-2.795,4.705-7.57,8.41-13.211,7.67-.119-.016-.232.055-.273.168-.039.113.006.24.109.302,2.797,1.685,5.871,2.384,9.863,1.052-5.795,4.909-14.047,7.742-21.84,5.227-.109-.036-.229.007-.291.103-.062.097-.051.223.025.308,5.908,6.564,17.689,6.695,25.109,1.373-3.037,4.316-7.068,7.484-14.293,8.478-.115.016-.205.107-.219.223-.012.116.055.226.164.266,8.291,3.078,16.6-.045,23.445-8.215-2.992,6.377-7.906,11.484-14.768,14.012-.115.042-.184.16-.162.279.019.121.123.21.244.213,3.943.081,7.486-.858,12.266-3.57-3.508,5.689-2.74,15.639,2.369,22.258.07.092.195.124.303.078.105-.047.168-.159.148-.273-1.18-7.201,1.299-15.33,5.609-19.643-2.152,7.632-.006,14.576,5.896,19.645.07.061.17.077.256.044.088-.033.148-.112.162-.204,1.234-9.418,11.769-18.975,20.602-19.775.125-.011.223-.111.23-.235s-.074-.237-.197-.265c-4.279-.969-8.691-.49-12.389,1.031,2.66-2.934,5.939-5.111,9.555-6.246.117-.036.189-.15.176-.271-.014-.121-.113-.215-.234-.224-4.51-.311-8.924,1.006-12.73,3.538,4.361-6.621,10.98-11.545,19.428-13.506.121-.028.203-.139.197-.263-.008-.124-.103-.224-.226-.237-11.918-1.302-21.746,3.318-28.221,11.918,1.648-4.9,6.365-9.756,12.945-12.619,5.846-2.545,11.85-2.946,16.422-1.51.105.033.223-.007.285-.1.062-.092.059-.215-.012-.303Zm-52.904,75.572c4.807-10.486,4.465-18.686.594-29.055-.045-.117-.166-.184-.289-.16-.123.025-.209.137-.203.262.621,12.621-2.826,21.654-10.299,27.807,8.25-9.852,4.354-29.56-8.822-29.56-9.586,0-17.516,7.975-19.455,17.524-.024.121.042.244.158.287.115.045.246,0,.309-.105,2.843-4.762,7.409-7.851,12.457-7.851,8.135,0,10.541,6.467,10.541,10.998,0,6.188-4.926,11.344-8.707,11.344-3.438,0-5.041-2.824-5.041-4.928,0-3.898,2.998-7.166,6.377-8.164.119-.035.197-.154.18-.279-.02-.125-.125-.217-.25-.219-4.106-.025-7.577,1.856-9.63,5.568-.269-2.875-.272-4.686.641-7.723.035-.117-.019-.242-.126-.299-.109-.057-.242-.027-.316.068-7.356,9.393-3.836,25.625,1.979,32.358-5.531-3.983-10.416-12.633-10.339-24.393.001-.123-.085-.227-.205-.25-.12-.025-.239.041-.284.154-4.108,10.252-1.929,29.248,9.281,39.852-2.884.396-5.867.346-9.125-.693-.115-.035-.24.014-.299.119-.059.107-.035.24.059.318,4.092,3.455,9.814,4.541,15.266,4.541-4.697-5.5-3.137-16.555,4.355-16.555,5.348,0,7.775,8.299,3.647,12.781-.078.086-.088.215-.025.311.064.098.186.141.297.102,4.779-1.654,9.945-5.789,9.945-11.016,0-5.043-4.812-9.394-11.801-9.051,8.818-2.506,18.051.267,22.881,6.252.074.094.205.121.311.068.107-.055.162-.176.133-.291-2.791-10.717-11.967-15.199-23.439-13.707,9.281-3.756,23.25-.48,29.424,7.311.072.092.199.121.307.072.105-.051.164-.168.141-.281-1.371-6.615-4.863-11.562-10.623-13.518Z" style="fill:#00427e; stroke-width:0px;"/><path d="m81.327,162.473c-.021.119-.125.207-.246.207-12.906.137-24.754,3.268-33.971,11.516,8.029-5.559,22.941-7.51,31.527-3.619.109.051.168.172.141.289-.025.117-.133.199-.254.197-10.68-.291-19.279,3.006-25.984,8.963,6.869.424,12.574,4.74,12.557,9.846,0,.119-.084.223-.201.248-.115.023-.234-.035-.283-.145-1.121-2.488-4.748-3.781-8.582-2.881-4.18.982-7,4.19-6.301,7.166.471,2.014,2.436,3.402,4.951,3.787.127.02.221.129.217.258-.004.127-.102.233-.231.246-1.068.102-2.18.105-3.316-.004-6.49-.617-11.514-4.594-11.949-9.178-4.713.547-8.885,3.158-10.379,6.773-.045.109-.158.172-.275.154-.115-.018-.203-.113-.213-.23-.377-4.75,1.258-7.838,4.971-10.854-5.385,2.059-11.445,2.164-17.256-.537-.105-.051-.164-.166-.143-.281.023-.115.123-.199.24-.203,4.879-.19,8.416-1.756,11.732-5.072-18.256,5.135-33.088-6.201-27.955-23.051.035-.117.147-.191.268-.18.121.012.217.107.227.229.918,9.715,7.703,16.117,17.861,17.076-5.387-2.059-11-6.975-11.557-15.533-.008-.123.072-.232.191-.264.119-.029.242.031.293.143,2.799,6.154,8.297,9.264,14.16,9.812-6.334-2.582-10.397-8.604-11.57-16.422-.02-.123.055-.24.174-.279.117-.037.246.016.303.127,3.865,7.582,12.156,12.793,22.447,8.81,10.617-4.109,15.274-16.385,16.303-25.039.016-.123.115-.217.238-.225.123-.006.232.076.262.195,3.719,15.689-3.584,31.949-16.637,38.84,7.096-2.002,13.439-6.26,17.027-13.354,8.293-1.018,14.004-3.863,16.857-9.24.057-.106.18-.158.295-.125.115.035.191.146.182.266-.182,2.109-.941,6.33-4.074,8.271,6.965-.012,12.506.893,17.799,3.014.111.045.178.162.154.281Zm-29.486-53.469c.1.064.229.055.316-.027.086-.08.103-.209.045-.312-1.619-2.797-.141-6.812,3.051-6.812,5.721,0,8.471,10.769,7.596,20.592-2.162-5.754-4.033-8.055-7.348-10.795-.094-.076-.228-.078-.322,0-.094.076-.121.209-.062.316,4.855,9.078,5.896,16.064,5.896,24.084-1.463-5.957-3.195-9.32-8.127-14.381-.086-.088-.223-.101-.324-.031-.102.07-.139.203-.088.314,5.299,11.592,4.894,24.447.947,34.264-.039.098-.014.209.062.281.078.072.189.088.285.043,5.205-2.551,8.264-4.227,12.752-10.391-1.357-7.398-.229-11.047,3.172-17.193-3.937,9.916-1.842,23.893,8.187,29.59.109.062.248.035.324-.065.078-.1.072-.24-.016-.332-3.781-3.955-6.531-10.635-4.156-17.926-1.529,10.389,7.596,19.113,17.779,19.113,9.6,0,16.15-7.508,15.609-14.939-.537-7.365-5.443-10.971-9.672-12.498-.111-.041-.236.002-.299.102-.064.1-.051.23.033.314,5.609,5.693,6.377,16.492-3.584,19.76,5.859-5.057,3.689-16.828-5.69-17.725-.117-.01-.227.06-.264.172-.039.109.004.233.104.295,2.008,1.279,3.678,3.771,3.678,6.574,0,4.674-3.422,6.512-5.676,6.512-3.422,0-6.26-3.256-6.26-8.182,0-5.842,5.26-10.684,12.02-11.434,6.627-.736,12.783,2.154,15.75,6.459.07.102.201.137.314.086.111-.051.17-.174.141-.293-3.019-11.703-16.797-16.877-26.889-9.508,6.613-7.5,17.006-7.605,25.723.086.09.08.225.086.322.012.096-.074.127-.205.072-.315-2.666-5.406-9.252-11.818-18.605-10.885-8.557.855-13.521,9.016-14.523,15.691-.557-8.521,1.394-14.535,8.754-20.144.098-.074.127-.207.072-.316s-.18-.164-.297-.129c-6.785,1.959-12.23,5.424-15.049,12.543,0-6.16,2.139-12.371,7.525-16.51.098-.074.127-.207.072-.316-.055-.107-.178-.162-.295-.129-3.453.982-6.172,2.488-8.139,5.184-1.311-11.1-6.521-17.69-12.525-17.69-4.125,0-7.205,3.033-7.205,7.869,0,2.83,1.488,6.803,4.811,9.021Zm-99.227,91.617c3.162,3.904,9.539,5.393,16.432,3.988-.51,4.303.334,8.791,1.611,11.486.053.107.174.166.291.137s.197-.137.193-.258c-.375-8.766,4.623-15.842,13.449-18.908-6.906,4.756-8.926,14.193-5.639,19.064.068.1.195.139.307.094.111-.045.176-.162.154-.281-.373-2.061.605-4.684,2.713-6.725,2.906-2.815,6.85-3.453,8.811-1.43,1.961,2.025,1.197,5.947-1.707,8.76-1.06,1.027-2.26,1.764-3.449,2.186-.113.041-.182.154-.166.271.014.119.109.211.229.221,6.389.555,10.77-3.252,13.516-7.877,2.795-4.705,7.57-8.412,13.211-7.672.119.016.232-.055.273-.168.039-.113-.006-.238-.109-.301-2.797-1.684-5.871-2.383-9.863-1.053,5.795-4.908,14.047-7.74,21.84-5.227.109.035.229-.008.291-.104s.053-.223-.025-.309c-5.908-6.564-17.689-6.695-25.109-1.371,3.037-4.316,7.068-7.486,14.293-8.479.115-.016.205-.109.219-.225.012-.115-.055-.225-.164-.266-8.291-3.076-16.6.045-23.445,8.217,2.992-6.379,7.906-11.486,14.768-14.014.115-.041.184-.158.162-.279-.019-.121-.123-.209-.244-.211-3.943-.082-7.486.857-12.266,3.57,3.508-5.691,2.74-15.639-2.369-22.26-.07-.092-.195-.123-.303-.078-.105.047-.168.16-.148.275,1.18,7.199-1.299,15.328-5.609,19.641,2.152-7.631.006-14.576-5.896-19.643-.07-.061-.17-.078-.256-.045-.088.033-.148.111-.162.203-1.234,9.418-11.77,18.975-20.602,19.775-.125.012-.223.111-.23.236s.074.236.197.264c4.279.969,8.691.49,12.389-1.029-2.66,2.932-5.939,5.109-9.555,6.244-.117.037-.189.15-.176.271.014.121.113.217.234.225,4.51.311,8.924-1.006,12.73-3.539-4.361,6.621-10.98,11.545-19.428,13.508-.121.027-.203.139-.197.262.008.123.104.223.227.236,11.918,1.303,21.746-3.318,28.221-11.918-1.648,4.902-6.365,9.756-12.945,12.619-5.846,2.545-11.85,2.947-16.422,1.51-.105-.033-.223.008-.285.1-.062.094-.059.217.012.303ZM5.519,125.049c-4.807,10.486-4.465,18.685-.594,29.055.045.117.166.186.289.16.123-.025.209-.137.203-.26-.621-12.623,2.826-21.654,10.299-27.809-8.25,9.854-4.354,29.56,8.822,29.56,9.586,0,17.516-7.977,19.455-17.525.025-.121-.041-.242-.158-.287-.115-.045-.246,0-.309.107-2.842,4.762-7.408,7.852-12.457,7.852-8.135,0-10.541-6.467-10.541-11,0-6.186,4.926-11.342,8.707-11.342,3.438,0,5.041,2.822,5.041,4.926,0,3.898-2.998,7.166-6.375,8.164-.121.037-.197.154-.18.279s.123.219.25.219c4.106.025,7.576-1.853,9.629-5.568.27,2.875.271,4.686-.641,7.725-.035.117.018.242.125.299.109.055.242.027.316-.07,7.357-9.393,3.836-25.623-1.979-32.357,5.531,3.982,10.416,12.635,10.34,24.395-.002.121.084.226.205.25.119.023.238-.041.283-.154,4.109-10.254,1.93-29.248-9.281-39.852,2.885-.398,5.867-.348,9.125.691.115.037.24-.014.299-.119.059-.106.035-.238-.059-.316-4.092-3.455-9.814-4.541-15.266-4.541,4.697,5.5,3.137,16.553-4.354,16.553-5.35,0-7.777-8.299-3.648-12.781.078-.086.088-.213.025-.311-.064-.098-.185-.139-.297-.102-4.779,1.656-9.945,5.789-9.945,11.018,0,5.041,4.812,9.395,11.803,9.051-8.82,2.504-18.053-.268-22.883-6.254-.074-.092-.205-.121-.311-.066-.107.053-.162.174-.133.291,2.791,10.715,11.967,15.199,23.439,13.705-9.281,3.758-23.25.482-29.424-7.309-.072-.092-.199-.123-.307-.072-.105.049-.164.166-.141.281,1.371,6.615,4.863,11.56,10.623,13.516Z" style="fill:#9ddcf9; opacity:.4; stroke-width:0px;"/><path d="m87.475,34.694c.021-.119.125-.205.246-.207,12.906-.135,24.754-3.268,33.972-11.515-8.03,5.558-22.942,7.511-31.527,3.618-.11-.05-.169-.17-.142-.288.026-.118.133-.2.254-.196,10.68.289,19.279-3.007,25.984-8.965-6.869-.422-12.574-4.74-12.557-9.845,0-.119.084-.222.201-.247.116-.025.234.035.283.143,1.121,2.489,4.748,3.78,8.583,2.88,4.18-.98,7-4.189,6.301-7.165-.472-2.015-2.436-3.403-4.952-3.787-.127-.018-.22-.13-.217-.258.004-.128.103-.233.23-.245,1.068-.102,2.18-.106,3.317.002,6.49.617,11.514,4.596,11.949,9.178,4.712-.547,8.884-3.156,10.378-6.773.045-.108.16-.172.275-.154.115.019.203.114.213.23.377,4.752-1.258,7.839-4.97,10.854,5.384-2.059,11.444-2.165,17.255.538.105.049.164.164.143.279-.023.115-.123.199-.24.203-4.879.19-8.416,1.756-11.73,5.072,18.254-5.134,33.085,6.201,27.953,23.053-.035.115-.146.19-.268.178-.121-.012-.217-.107-.227-.228-.918-9.714-7.703-16.115-17.861-17.076,5.387,2.06,11,6.976,11.557,15.534.008.122-.072.233-.191.263-.119.029-.242-.029-.293-.141-2.799-6.154-8.297-9.266-14.16-9.812,6.334,2.58,10.396,8.602,11.57,16.42.02.123-.055.242-.174.279-.117.039-.246-.016-.303-.125-3.865-7.583-12.156-12.794-22.446-8.812-10.617,4.109-15.274,16.387-16.304,25.041-.015.121-.115.215-.238.223-.122.008-.232-.074-.261-.195-3.72-15.687,3.583-31.949,16.637-38.84-7.096,2.003-13.439,6.26-17.027,13.354-8.294,1.018-14.004,3.862-16.857,9.239-.057.107-.181.16-.296.125-.115-.033-.191-.144-.182-.266.183-2.109.941-6.33,4.074-8.271-6.965.011-12.506-.894-17.799-3.013-.111-.046-.177-.164-.154-.283Zm29.486,53.471c-.099-.066-.228-.055-.315.025-.086.082-.104.211-.046.312,1.62,2.797.141,6.814-3.051,6.814-5.721,0-8.471-10.769-7.596-20.594,2.163,5.756,4.033,8.055,7.348,10.795.094.078.228.078.322.002.094-.078.121-.209.063-.316-4.856-9.08-5.897-16.066-5.897-24.086,1.463,5.959,3.195,9.322,8.127,14.381.086.088.223.101.325.033.101-.07.139-.203.087-.316-5.298-11.59-4.894-24.447-.947-34.264.039-.098.015-.209-.062-.281-.077-.07-.189-.088-.285-.041-5.205,2.551-8.264,4.227-12.752,10.389,1.357,7.398.228,11.049-3.172,17.195,3.937-9.918,1.842-23.894-8.187-29.592-.109-.061-.248-.034-.324.064-.078.1-.071.241.016.332,3.781,3.955,6.531,10.635,4.156,17.928,1.529-10.389-7.596-19.115-17.779-19.115-9.6,0-16.15,7.51-15.609,14.941.537,7.365,5.443,10.969,9.672,12.498.111.039.236-.002.3-.102.063-.102.05-.23-.033-.316-5.61-5.691-6.378-16.492,3.583-19.76-5.859,5.057-3.689,16.83,5.689,17.725.117.012.227-.059.265-.17.038-.111-.005-.234-.104-.297-2.009-1.277-3.679-3.771-3.679-6.574,0-4.674,3.422-6.51,5.676-6.51,3.422,0,6.26,3.256,6.26,8.18,0,5.844-5.26,10.684-12.019,11.436-6.626.734-12.782-2.154-15.75-6.459-.069-.102-.201-.139-.313-.088-.112.051-.171.176-.141.295,3.018,11.703,16.796,16.877,26.888,9.506-6.613,7.502-17.006,7.605-25.722-.086-.091-.08-.226-.084-.322-.01-.097.072-.127.205-.073.312,2.667,5.408,9.253,11.82,18.605,10.885,8.557-.855,13.521-9.014,14.523-15.691.557,8.521-1.394,14.537-8.754,20.146-.097.074-.127.207-.072.316.055.107.18.162.297.129,6.785-1.961,12.23-5.426,15.049-12.545,0,6.162-2.139,12.373-7.525,16.512-.098.074-.127.205-.072.314.055.109.179.164.296.131,3.453-.984,6.171-2.488,8.138-5.186,1.31,11.1,6.521,17.691,12.525,17.691,4.125,0,7.205-3.033,7.205-7.871,0-2.83-1.488-6.803-4.811-9.019ZM216.187-3.454c-3.162-3.904-9.539-5.392-16.432-3.988.51-4.301-.334-8.791-1.611-11.484-.053-.109-.174-.167-.291-.139-.117.029-.197.137-.193.258.375,8.767-4.623,15.844-13.449,18.91,6.906-4.756,8.926-14.193,5.639-19.066-.068-.099-.195-.138-.307-.092-.111.045-.176.162-.154.279.373,2.06-.605,4.685-2.713,6.726-2.906,2.814-6.85,3.453-8.811,1.43-1.961-2.025-1.197-5.947,1.707-8.762,1.061-1.027,2.26-1.762,3.449-2.185.113-.04.182-.153.166-.271-.014-.119-.109-.211-.228-.221-6.389-.555-10.77,3.252-13.515,7.878-2.795,4.705-7.57,8.41-13.211,7.67-.119-.016-.233.055-.274.168-.039.113.006.24.109.302,2.797,1.685,5.871,2.384,9.863,1.052-5.795,4.909-14.047,7.742-21.84,5.227-.109-.036-.228.007-.291.104-.062.097-.051.223.025.308,5.908,6.564,17.689,6.695,25.109,1.373-3.037,4.316-7.068,7.484-14.293,8.478-.115.016-.205.107-.219.223-.012.116.055.226.164.266,8.291,3.078,16.6-.045,23.444-8.215-2.992,6.377-7.905,11.484-14.767,14.012-.115.042-.184.16-.162.279.019.121.123.21.244.213,3.943.081,7.486-.857,12.265-3.57-3.508,5.689-2.74,15.639,2.369,22.258.07.092.195.124.303.078.105-.047.168-.159.148-.273-1.18-7.201,1.299-15.33,5.609-19.643-2.152,7.632-.006,14.576,5.897,19.644.07.061.17.077.256.044.088-.033.148-.112.162-.204,1.234-9.418,11.769-18.975,20.602-19.775.125-.011.223-.111.23-.235.008-.124-.074-.237-.197-.265-4.279-.969-8.691-.49-12.389,1.031,2.66-2.934,5.939-5.111,9.555-6.246.117-.036.189-.15.176-.271-.014-.121-.113-.215-.234-.224-4.51-.311-8.924,1.006-12.73,3.538,4.361-6.621,10.98-11.545,19.428-13.506.121-.028.203-.139.197-.263-.008-.124-.103-.224-.227-.237-11.918-1.302-21.746,3.318-28.221,11.918,1.648-4.9,6.365-9.756,12.945-12.619,5.846-2.545,11.85-2.946,16.422-1.51.105.033.223-.007.285-.1.062-.092.059-.215-.012-.303Zm-52.903,75.572c4.807-10.486,4.465-18.685.594-29.055-.045-.117-.166-.184-.289-.16-.123.025-.209.137-.203.262.621,12.621-2.826,21.654-10.299,27.807,8.25-9.851,4.354-29.559-8.822-29.559-9.586,0-17.516,7.975-19.455,17.524-.024.121.042.244.158.287.115.045.246,0,.309-.105,2.843-4.762,7.409-7.851,12.457-7.851,8.135,0,10.541,6.467,10.541,10.998,0,6.187-4.926,11.344-8.707,11.344-3.438,0-5.041-2.824-5.041-4.928,0-3.898,2.998-7.166,6.377-8.164.119-.035.197-.154.18-.279-.02-.125-.125-.217-.25-.219-4.106-.025-7.577,1.855-9.63,5.568-.269-2.875-.272-4.686.641-7.723.035-.117-.018-.242-.126-.299-.109-.057-.242-.027-.316.068-7.356,9.393-3.836,25.625,1.979,32.357-5.531-3.982-10.416-12.633-10.339-24.393,0-.123-.085-.227-.205-.25-.12-.025-.239.041-.284.154-4.108,10.252-1.929,29.248,9.281,39.851-2.884.396-5.867.346-9.125-.693-.115-.035-.24.014-.299.119-.059.107-.035.24.058.318,4.092,3.455,9.814,4.541,15.266,4.541-4.697-5.5-3.137-16.555,4.355-16.555,5.348,0,7.775,8.299,3.646,12.781-.078.086-.088.215-.025.311.065.098.186.141.297.102,4.779-1.654,9.945-5.789,9.945-11.016,0-5.043-4.812-9.394-11.801-9.051,8.818-2.506,18.051.267,22.881,6.252.074.094.205.121.31.068.107-.055.162-.176.133-.291-2.791-10.717-11.967-15.199-23.439-13.707,9.281-3.756,23.25-.48,29.423,7.311.072.092.199.121.307.072.105-.051.164-.168.141-.281-1.371-6.615-4.862-11.563-10.622-13.518Z" style="fill:#00427e; stroke-width:0px;"/><path d="m189.665,52.831c-.021.119-.125.207-.246.207-12.906.137-24.753,3.268-33.97,11.516,8.029-5.559,22.94-7.51,31.526-3.619.109.051.168.172.141.289-.025.117-.133.199-.254.197-10.68-.291-19.278,3.006-25.983,8.963,6.869.424,12.573,4.74,12.556,9.846,0,.119-.084.223-.201.248-.115.023-.234-.035-.283-.144-1.121-2.488-4.747-3.781-8.581-2.881-4.18.982-7,4.189-6.301,7.166.471,2.014,2.436,3.402,4.951,3.787.127.02.221.129.217.258-.004.127-.102.232-.23.246-1.068.102-2.18.105-3.316-.004-6.49-.617-11.514-4.594-11.949-9.178-4.713.547-8.885,3.158-10.379,6.773-.045.109-.158.172-.275.154-.115-.018-.203-.113-.213-.23-.377-4.75,1.258-7.838,4.971-10.854-5.385,2.059-11.445,2.164-17.256-.537-.105-.051-.164-.166-.142-.281.023-.115.123-.199.24-.203,4.879-.189,8.416-1.756,11.732-5.072-18.256,5.135-33.088-6.201-27.955-23.051.035-.117.146-.191.268-.18.121.012.217.107.227.228.918,9.715,7.703,16.117,17.861,17.076-5.387-2.059-11-6.975-11.557-15.533-.008-.123.072-.232.191-.264.119-.029.242.031.293.143,2.799,6.154,8.297,9.264,14.16,9.812-6.334-2.582-10.396-8.603-11.57-16.422-.019-.123.055-.24.174-.279.117-.037.246.016.303.127,3.865,7.582,12.156,12.793,22.447,8.81,10.617-4.109,15.273-16.385,16.303-25.039.016-.123.115-.217.238-.225.123-.006.232.076.262.195,3.719,15.689-3.584,31.949-16.637,38.84,7.096-2.002,13.439-6.26,17.027-13.354,8.293-1.018,14.003-3.863,16.856-9.24.057-.105.18-.158.295-.125.115.035.191.146.182.266-.182,2.109-.941,6.33-4.074,8.271,6.965-.012,12.506.893,17.799,3.014.111.045.178.162.154.281ZM160.18-.638c.1.064.229.055.316-.027.086-.08.104-.209.045-.312-1.619-2.797-.141-6.812,3.051-6.812,5.721,0,8.47,10.769,7.596,20.592-2.162-5.754-4.033-8.055-7.348-10.795-.094-.076-.228-.078-.322,0-.094.076-.121.209-.062.316,4.855,9.078,5.896,16.064,5.896,24.084-1.463-5.957-3.195-9.32-8.127-14.381-.086-.088-.223-.101-.324-.031-.101.07-.139.203-.088.314,5.299,11.592,4.895,24.447.947,34.264-.039.098-.014.209.062.281.078.072.189.088.285.043,5.205-2.551,8.264-4.227,12.751-10.391-1.357-7.398-.228-11.047,3.172-17.193-3.937,9.916-1.842,23.893,8.187,29.59.109.062.248.035.324-.064.078-.1.072-.24-.016-.332-3.781-3.955-6.531-10.635-4.156-17.926-1.529,10.389,7.596,19.113,17.779,19.113,9.6,0,16.15-7.508,15.609-14.939-.537-7.365-5.443-10.971-9.672-12.498-.111-.041-.236.002-.299.101-.064.1-.051.23.033.314,5.609,5.693,6.377,16.492-3.584,19.76,5.859-5.057,3.689-16.828-5.689-17.725-.117-.01-.227.06-.264.172-.039.109.004.232.103.295,2.008,1.279,3.678,3.771,3.678,6.574,0,4.674-3.422,6.512-5.676,6.512-3.422,0-6.26-3.256-6.26-8.182,0-5.842,5.26-10.684,12.02-11.434,6.627-.736,12.783,2.154,15.75,6.459.07.102.201.137.314.086.111-.051.17-.174.141-.293-3.02-11.703-16.797-16.877-26.889-9.508,6.613-7.5,17.006-7.605,25.723.086.09.08.225.086.322.012.096-.074.127-.205.072-.314-2.666-5.406-9.252-11.818-18.605-10.885-8.557.855-13.521,9.016-14.523,15.691-.557-8.521,1.395-14.535,8.754-20.144.098-.074.127-.207.072-.316s-.18-.164-.297-.129c-6.785,1.959-12.23,5.424-15.049,12.543,0-6.16,2.139-12.371,7.525-16.51.098-.074.127-.207.072-.316-.055-.107-.178-.162-.295-.129-3.453.982-6.172,2.488-8.139,5.184-1.311-11.1-6.52-17.689-12.524-17.689-4.125,0-7.205,3.033-7.205,7.869,0,2.83,1.488,6.803,4.81,9.021ZM60.953,90.979c3.162,3.904,9.539,5.393,16.432,3.988-.51,4.303.334,8.791,1.611,11.486.053.107.174.166.291.137.117-.029.197-.137.193-.258-.375-8.766,4.623-15.842,13.449-18.908-6.906,4.756-8.926,14.193-5.639,19.064.068.1.195.139.307.094.111-.045.176-.162.154-.281-.373-2.061.606-4.684,2.713-6.725,2.906-2.814,6.85-3.453,8.81-1.43,1.961,2.025,1.197,5.947-1.707,8.76-1.06,1.027-2.26,1.764-3.449,2.186-.113.041-.182.154-.166.271.014.119.109.211.228.221,6.389.555,10.769-3.252,13.516-7.877,2.795-4.705,7.57-8.412,13.211-7.672.119.016.232-.055.273-.168.039-.113-.006-.238-.109-.301-2.797-1.684-5.871-2.383-9.863-1.053,5.795-4.908,14.047-7.74,21.84-5.227.109.035.228-.008.291-.103.062-.096.053-.223-.025-.309-5.908-6.564-17.69-6.695-25.109-1.371,3.037-4.316,7.068-7.486,14.293-8.478.115-.016.205-.109.219-.225.012-.115-.055-.225-.164-.266-8.291-3.076-16.6.045-23.445,8.217,2.992-6.379,7.906-11.486,14.767-14.014.115-.041.184-.158.162-.279-.02-.121-.123-.209-.244-.211-3.943-.082-7.486.857-12.266,3.57,3.508-5.691,2.74-15.639-2.369-22.26-.07-.092-.195-.123-.303-.078-.106.047-.168.16-.148.275,1.18,7.199-1.299,15.328-5.609,19.641,2.152-7.631.006-14.576-5.896-19.643-.07-.06-.17-.078-.256-.045-.088.033-.148.111-.162.203-1.234,9.418-11.77,18.975-20.602,19.775-.125.012-.223.111-.23.236s.074.236.197.264c4.279.969,8.691.49,12.389-1.029-2.66,2.932-5.939,5.109-9.555,6.244-.117.037-.19.15-.176.271.014.121.113.217.234.225,4.51.31,8.924-1.006,12.73-3.539-4.361,6.621-10.98,11.545-19.428,13.508-.121.027-.203.139-.197.262.008.123.103.223.227.236,11.918,1.303,21.746-3.318,28.221-11.918-1.648,4.902-6.365,9.756-12.945,12.619-5.846,2.545-11.85,2.947-16.422,1.51-.105-.033-.223.008-.285.1-.063.094-.059.217.012.303ZM113.858,15.407c-4.807,10.486-4.465,18.686-.594,29.055.045.117.166.185.289.16.123-.025.209-.137.203-.26-.621-12.623,2.826-21.654,10.299-27.809-8.25,9.853-4.353,29.56,8.822,29.56,9.586,0,17.516-7.977,19.455-17.525.025-.121-.041-.242-.158-.287-.115-.045-.246,0-.309.107-2.842,4.762-7.408,7.852-12.457,7.852-8.135,0-10.541-6.467-10.541-11,0-6.186,4.926-11.342,8.707-11.342,3.437,0,5.041,2.822,5.041,4.926,0,3.898-2.998,7.166-6.375,8.164-.121.037-.197.154-.18.279s.123.219.25.219c4.105.025,7.576-1.853,9.629-5.568.269,2.875.271,4.686-.641,7.725-.035.117.018.242.125.299.109.055.242.027.316-.07,7.357-9.393,3.836-25.623-1.978-32.357,5.531,3.982,10.416,12.635,10.34,24.395-.002.121.084.226.205.25.119.023.238-.041.283-.154,4.109-10.254,1.93-29.248-9.281-39.852,2.885-.398,5.867-.348,9.125.691.115.037.24-.014.299-.119.059-.105.035-.238-.059-.316-4.092-3.455-9.814-4.541-15.266-4.541,4.697,5.5,3.137,16.553-4.354,16.553-5.35,0-7.777-8.299-3.648-12.781.078-.086.088-.213.025-.31-.064-.098-.186-.139-.297-.102-4.779,1.656-9.945,5.789-9.945,11.018,0,5.041,4.812,9.394,11.803,9.051-8.82,2.504-18.053-.268-22.883-6.254-.074-.092-.205-.121-.31-.066-.107.053-.162.174-.133.291,2.791,10.715,11.967,15.199,23.439,13.705-9.281,3.758-23.25.482-29.424-7.309-.072-.092-.199-.123-.307-.072-.105.049-.164.166-.141.281,1.371,6.615,4.863,11.56,10.623,13.516Z" style="fill:#9ddcf9; opacity:.4; stroke-width:0px;"/><path d="m-20.864,34.694c.022-.119.125-.205.246-.207,12.906-.135,24.754-3.268,33.972-11.515-8.03,5.558-22.942,7.511-31.527,3.618-.11-.05-.169-.17-.142-.288.026-.118.133-.2.254-.196,10.68.289,19.279-3.007,25.984-8.965-6.869-.422-12.574-4.74-12.557-9.845,0-.119.084-.222.201-.247.116-.025.234.035.283.143,1.121,2.489,4.748,3.78,8.583,2.88,4.18-.98,7-4.189,6.301-7.165-.472-2.015-2.436-3.403-4.952-3.787-.127-.018-.22-.13-.217-.258.004-.128.102-.233.23-.245,1.068-.102,2.18-.106,3.317.002,6.49.617,11.514,4.596,11.949,9.178,4.712-.547,8.884-3.156,10.378-6.773.045-.108.16-.172.275-.154.115.019.203.114.213.23.377,4.752-1.258,7.839-4.97,10.854,5.384-2.059,11.444-2.165,17.255.538.105.049.164.164.143.279-.023.115-.123.199-.24.203-4.879.19-8.416,1.756-11.731,5.072,18.254-5.134,33.086,6.201,27.953,23.053-.035.115-.146.19-.268.178-.121-.012-.217-.107-.226-.228-.918-9.714-7.703-16.115-17.861-17.076,5.387,2.06,11,6.976,11.557,15.534.008.122-.072.233-.191.263-.119.029-.242-.029-.293-.141-2.799-6.154-8.297-9.266-14.16-9.812,6.334,2.58,10.396,8.602,11.57,16.42.02.123-.055.242-.174.279-.117.039-.246-.016-.303-.125-3.865-7.583-12.156-12.794-22.446-8.812-10.617,4.109-15.274,16.387-16.304,25.041-.015.121-.115.215-.238.223-.122.008-.232-.074-.261-.195-3.72-15.687,3.583-31.949,16.637-38.84-7.096,2.003-13.44,6.26-17.027,13.354-8.294,1.018-14.004,3.862-16.858,9.239-.057.107-.181.16-.296.125-.115-.033-.191-.144-.182-.266.183-2.109.941-6.33,4.074-8.271-6.965.011-12.506-.894-17.799-3.013-.111-.046-.177-.164-.154-.283Zm29.486,53.471c-.099-.066-.229-.055-.315.025-.086.082-.104.211-.046.312,1.62,2.797.141,6.814-3.051,6.814-5.721,0-8.471-10.769-7.596-20.594,2.163,5.756,4.033,8.055,7.348,10.795.094.078.229.078.322.002.094-.078.121-.209.064-.316C.491,76.124-.55,69.138-.55,61.118c1.463,5.959,3.195,9.322,8.127,14.381.086.088.223.101.325.033.102-.07.139-.203.087-.316-5.298-11.59-4.894-24.447-.947-34.264.039-.098.015-.209-.062-.281-.077-.07-.189-.088-.285-.041-5.205,2.551-8.264,4.227-12.752,10.389,1.357,7.398.228,11.049-3.172,17.195,3.938-9.918,1.842-23.894-8.188-29.592-.109-.061-.248-.034-.324.064-.078.1-.071.241.016.332,3.781,3.955,6.531,10.635,4.156,17.928,1.529-10.389-7.596-19.115-17.779-19.115-9.6,0-16.15,7.51-15.609,14.941.537,7.365,5.443,10.969,9.672,12.498.111.039.236-.002.3-.102.064-.102.05-.23-.033-.316-5.61-5.691-6.378-16.492,3.583-19.76-5.859,5.057-3.689,16.83,5.69,17.725.117.012.226-.059.265-.17s-.005-.234-.104-.297c-2.009-1.277-3.679-3.771-3.679-6.574,0-4.674,3.422-6.51,5.676-6.51,3.422,0,6.26,3.256,6.26,8.18,0,5.844-5.26,10.684-12.019,11.436-6.626.734-12.782-2.154-15.75-6.459-.069-.102-.201-.139-.313-.088-.112.051-.171.176-.141.295,3.019,11.703,16.796,16.877,26.888,9.506-6.613,7.502-17.006,7.605-25.722-.086-.091-.08-.226-.084-.322-.01-.097.072-.127.205-.073.312,2.667,5.408,9.253,11.82,18.605,10.885,8.557-.855,13.522-9.014,14.523-15.691.557,8.521-1.393,14.537-8.754,20.146-.097.074-.127.207-.072.316.055.107.18.162.297.129,6.785-1.961,12.23-5.426,15.049-12.545,0,6.162-2.139,12.373-7.525,16.512-.098.074-.127.205-.072.314s.179.164.296.131c3.453-.984,6.171-2.488,8.138-5.186,1.31,11.1,6.521,17.691,12.525,17.691,4.125,0,7.205-3.033,7.205-7.871,0-2.83-1.488-6.803-4.811-9.019ZM107.849-3.454c-3.162-3.904-9.539-5.392-16.432-3.988.51-4.301-.334-8.791-1.611-11.484-.053-.109-.174-.167-.291-.139-.117.029-.197.137-.193.258.375,8.767-4.623,15.844-13.449,18.91,6.906-4.756,8.926-14.193,5.639-19.066-.068-.099-.195-.138-.307-.092-.111.045-.176.162-.154.279.373,2.06-.605,4.685-2.713,6.726-2.906,2.814-6.85,3.453-8.811,1.43-1.961-2.025-1.197-5.947,1.707-8.762,1.061-1.027,2.26-1.762,3.449-2.185.113-.04.182-.153.166-.271-.014-.119-.109-.211-.228-.221-6.389-.555-10.77,3.252-13.516,7.878-2.795,4.705-7.57,8.41-13.211,7.67-.119-.016-.232.055-.273.168-.039.113.006.24.109.302,2.797,1.685,5.871,2.384,9.863,1.052C51.798-.08,43.546,2.753,35.753.238c-.109-.036-.229.007-.291.104-.062.097-.051.223.025.308,5.908,6.564,17.689,6.695,25.109,1.373-3.037,4.316-7.068,7.484-14.293,8.478-.115.016-.205.107-.219.223-.012.116.055.226.164.266,8.291,3.078,16.6-.045,23.445-8.215-2.992,6.377-7.906,11.484-14.768,14.012-.115.042-.184.16-.162.279.019.121.123.21.244.213,3.943.081,7.486-.857,12.266-3.57-3.508,5.689-2.74,15.639,2.369,22.258.07.092.195.124.303.078.105-.047.168-.159.148-.273-1.18-7.201,1.299-15.33,5.609-19.643-2.152,7.632-.006,14.576,5.896,19.644.07.061.17.077.256.044.088-.033.148-.112.162-.204,1.234-9.418,11.769-18.975,20.602-19.775.125-.011.223-.111.23-.235s-.074-.237-.197-.265c-4.279-.969-8.691-.49-12.389,1.031,2.66-2.934,5.939-5.111,9.555-6.246.117-.036.189-.15.176-.271-.014-.121-.113-.215-.234-.224-4.51-.311-8.924,1.006-12.73,3.538,4.361-6.621,10.98-11.545,19.428-13.506.121-.028.203-.139.197-.263-.008-.124-.103-.224-.226-.237-11.918-1.302-21.746,3.318-28.221,11.918,1.648-4.9,6.365-9.756,12.945-12.619,5.846-2.545,11.85-2.946,16.422-1.51.105.033.223-.007.285-.1.062-.092.059-.215-.012-.303Zm-52.904,75.572c4.807-10.486,4.465-18.685.594-29.055-.045-.117-.166-.184-.289-.16-.123.025-.209.137-.203.262.621,12.621-2.826,21.654-10.299,27.807,8.25-9.851,4.354-29.559-8.822-29.559-9.586,0-17.516,7.975-19.455,17.524-.024.121.042.244.158.287.115.045.246,0,.309-.105,2.843-4.762,7.409-7.851,12.457-7.851,8.135,0,10.541,6.467,10.541,10.998,0,6.187-4.926,11.344-8.707,11.344-3.438,0-5.041-2.824-5.041-4.928,0-3.898,2.998-7.166,6.377-8.164.119-.035.197-.154.18-.279-.02-.125-.125-.217-.25-.219-4.106-.025-7.577,1.855-9.63,5.568-.269-2.875-.272-4.686.641-7.723.035-.117-.019-.242-.126-.299-.109-.057-.242-.027-.316.068-7.356,9.393-3.836,25.625,1.979,32.357-5.531-3.982-10.416-12.633-10.339-24.393.001-.123-.085-.227-.205-.25-.12-.025-.239.041-.284.154-4.108,10.252-1.929,29.248,9.281,39.851-2.884.396-5.867.346-9.125-.693-.115-.035-.24.014-.299.119-.059.107-.035.24.059.318,4.092,3.455,9.814,4.541,15.266,4.541-4.697-5.5-3.137-16.555,4.355-16.555,5.348,0,7.775,8.299,3.647,12.781-.078.086-.088.215-.025.311.064.098.186.141.297.102,4.779-1.654,9.945-5.789,9.945-11.016,0-5.043-4.812-9.394-11.801-9.051,8.818-2.506,18.051.267,22.881,6.252.074.094.205.121.311.068.107-.055.162-.176.133-.291-2.791-10.717-11.967-15.199-23.439-13.707,9.281-3.756,23.25-.48,29.424,7.311.072.092.199.121.307.072.105-.051.164-.168.141-.281-1.371-6.615-4.863-11.563-10.623-13.518Z" style="fill:#00427e; stroke-width:0px;"/><path d="m81.327,52.831c-.021.119-.125.207-.246.207-12.906.137-24.754,3.268-33.971,11.516,8.029-5.559,22.941-7.51,31.527-3.619.109.051.168.172.141.289-.025.117-.133.199-.254.197-10.68-.291-19.279,3.006-25.984,8.963,6.869.424,12.574,4.74,12.557,9.846,0,.119-.084.223-.201.248-.115.023-.234-.035-.283-.144-1.121-2.488-4.748-3.781-8.582-2.881-4.18.982-7,4.189-6.301,7.166.471,2.014,2.436,3.402,4.951,3.787.127.02.221.129.217.258-.004.127-.102.232-.231.246-1.068.102-2.18.105-3.316-.004-6.49-.617-11.514-4.594-11.949-9.178-4.713.547-8.885,3.158-10.379,6.773-.045.109-.158.172-.275.154-.115-.018-.203-.113-.213-.23-.377-4.75,1.258-7.838,4.971-10.854-5.385,2.059-11.445,2.164-17.256-.537-.105-.051-.164-.166-.143-.281.023-.115.123-.199.24-.203,4.879-.189,8.416-1.756,11.732-5.072C9.823,74.612-5.009,63.276.124,46.427c.035-.117.147-.191.268-.18.121.012.217.107.227.228.918,9.715,7.703,16.117,17.861,17.076-5.387-2.059-11-6.975-11.557-15.533-.008-.123.072-.232.191-.264.119-.029.242.031.293.143,2.799,6.154,8.297,9.264,14.16,9.812-6.334-2.582-10.397-8.603-11.57-16.422-.02-.123.055-.24.174-.279.117-.037.246.016.303.127,3.865,7.582,12.156,12.793,22.447,8.81,10.617-4.109,15.274-16.385,16.303-25.039.016-.123.115-.217.238-.225.123-.006.232.076.262.195,3.719,15.689-3.584,31.949-16.637,38.84,7.096-2.002,13.439-6.26,17.027-13.354,8.293-1.018,14.004-3.863,16.857-9.24.057-.105.18-.158.295-.125.115.035.191.146.182.266-.182,2.109-.941,6.33-4.074,8.271,6.965-.012,12.506.893,17.799,3.014.111.045.178.162.154.281ZM51.841-.638c.1.064.229.055.316-.027.086-.08.103-.209.045-.312-1.619-2.797-.141-6.812,3.051-6.812,5.721,0,8.471,10.769,7.596,20.592-2.162-5.754-4.033-8.055-7.348-10.795-.094-.076-.228-.078-.322,0-.094.076-.121.209-.062.316,4.855,9.078,5.896,16.064,5.896,24.084-1.463-5.957-3.195-9.32-8.127-14.381-.086-.088-.223-.101-.324-.031-.102.07-.139.203-.088.314,5.299,11.592,4.894,24.447.947,34.264-.039.098-.014.209.062.281.078.072.189.088.285.043,5.205-2.551,8.264-4.227,12.752-10.391-1.357-7.398-.229-11.047,3.172-17.193-3.937,9.916-1.842,23.893,8.187,29.59.109.062.248.035.324-.064.078-.1.072-.24-.016-.332-3.781-3.955-6.531-10.635-4.156-17.926-1.529,10.389,7.596,19.113,17.779,19.113,9.6,0,16.15-7.508,15.609-14.939-.537-7.365-5.443-10.971-9.672-12.498-.111-.041-.236.002-.299.101-.064.1-.051.23.033.314,5.609,5.693,6.377,16.492-3.584,19.76,5.859-5.057,3.689-16.828-5.69-17.725-.117-.01-.227.06-.264.172-.039.109.004.232.104.295,2.008,1.279,3.678,3.771,3.678,6.574,0,4.674-3.422,6.512-5.676,6.512-3.422,0-6.26-3.256-6.26-8.182,0-5.842,5.26-10.684,12.02-11.434,6.627-.736,12.783,2.154,15.75,6.459.07.102.201.137.314.086.111-.051.17-.174.141-.293-3.019-11.703-16.797-16.877-26.889-9.508,6.613-7.5,17.006-7.605,25.723.086.09.08.225.086.322.012.096-.074.127-.205.072-.314-2.666-5.406-9.252-11.818-18.605-10.885-8.557.855-13.521,9.016-14.523,15.691-.557-8.521,1.394-14.535,8.754-20.144.098-.074.127-.207.072-.316s-.18-.164-.297-.129c-6.785,1.959-12.23,5.424-15.049,12.543,0-6.16,2.139-12.371,7.525-16.51.098-.074.127-.207.072-.316-.055-.107-.178-.162-.295-.129-3.453.982-6.172,2.488-8.139,5.184-1.311-11.1-6.521-17.689-12.525-17.689-4.125,0-7.205,3.033-7.205,7.869,0,2.83,1.488,6.803,4.811,9.021ZM-47.386,90.979c3.162,3.904,9.539,5.393,16.432,3.988-.51,4.303.334,8.791,1.611,11.486.053.107.174.166.291.137s.197-.137.193-.258c-.375-8.766,4.623-15.842,13.449-18.908-6.906,4.756-8.926,14.193-5.639,19.064.068.1.195.139.307.094.111-.045.176-.162.154-.281-.373-2.061.605-4.684,2.713-6.725,2.906-2.814,6.85-3.453,8.811-1.43,1.961,2.025,1.197,5.947-1.707,8.76-1.06,1.027-2.26,1.764-3.449,2.186-.113.041-.182.154-.166.271.014.119.109.211.229.221,6.389.555,10.77-3.252,13.516-7.877,2.795-4.705,7.57-8.412,13.211-7.672.119.016.232-.055.273-.168.039-.113-.006-.238-.109-.301-2.797-1.684-5.871-2.383-9.863-1.053,5.795-4.908,14.047-7.74,21.84-5.227.109.035.229-.008.291-.103.062-.096.053-.223-.025-.309-5.908-6.564-17.689-6.695-25.109-1.371,3.037-4.316,7.068-7.486,14.293-8.478.115-.016.205-.109.219-.225.012-.115-.055-.225-.164-.266-8.291-3.076-16.6.045-23.445,8.217,2.992-6.379,7.906-11.486,14.768-14.014.115-.041.184-.158.162-.279-.019-.121-.123-.209-.244-.211-3.943-.082-7.486.857-12.266,3.57,3.508-5.691,2.74-15.639-2.369-22.26-.07-.092-.195-.123-.303-.078-.105.047-.168.16-.148.275,1.18,7.199-1.299,15.328-5.609,19.641,2.152-7.631.006-14.576-5.896-19.643-.07-.06-.17-.078-.256-.045-.088.033-.148.111-.162.203-1.234,9.418-11.77,18.975-20.602,19.775-.125.012-.223.111-.23.236s.074.236.197.264c4.279.969,8.691.49,12.389-1.029-2.66,2.932-5.939,5.109-9.555,6.244-.117.037-.189.15-.176.271.014.121.113.217.234.225,4.51.31,8.924-1.006,12.73-3.539-4.361,6.621-10.98,11.545-19.428,13.508-.121.027-.203.139-.197.262.008.123.104.223.227.236,11.918,1.303,21.746-3.318,28.221-11.918-1.648,4.902-6.365,9.756-12.945,12.619-5.846,2.545-11.85,2.947-16.422,1.51-.105-.033-.223.008-.285.1-.062.094-.059.217.012.303ZM5.519,15.407c-4.807,10.486-4.465,18.686-.594,29.055.045.117.166.185.289.16.123-.025.209-.137.203-.26-.621-12.623,2.826-21.654,10.299-27.809-8.25,9.853-4.354,29.56,8.822,29.56,9.586,0,17.516-7.977,19.455-17.525.025-.121-.041-.242-.158-.287-.115-.045-.246,0-.309.107-2.842,4.762-7.408,7.852-12.457,7.852-8.135,0-10.541-6.467-10.541-11,0-6.186,4.926-11.342,8.707-11.342,3.438,0,5.041,2.822,5.041,4.926,0,3.898-2.998,7.166-6.375,8.164-.121.037-.197.154-.18.279s.123.219.25.219c4.106.025,7.576-1.853,9.629-5.568.27,2.875.271,4.686-.641,7.725-.035.117.018.242.125.299.109.055.242.027.316-.07,7.357-9.393,3.836-25.623-1.979-32.357,5.531,3.982,10.416,12.635,10.34,24.395-.002.121.084.226.205.25.119.023.238-.041.283-.154,4.109-10.254,1.93-29.248-9.281-39.852,2.885-.398,5.867-.348,9.125.691.115.037.24-.014.299-.119.059-.105.035-.238-.059-.316-4.092-3.455-9.814-4.541-15.266-4.541,4.697,5.5,3.137,16.553-4.354,16.553-5.35,0-7.777-8.299-3.648-12.781.078-.086.088-.213.025-.31-.064-.098-.185-.139-.297-.102-4.779,1.656-9.945,5.789-9.945,11.018,0,5.041,4.812,9.394,11.803,9.051C15.833,3.819,6.601,1.048,1.771-4.938c-.074-.092-.205-.121-.311-.066-.107.053-.162.174-.133.291,2.791,10.715,11.967,15.199,23.439,13.705C15.485,12.749,1.517,9.474-4.657,1.683c-.072-.092-.199-.123-.307-.072-.105.049-.164.166-.141.281C-3.733,8.507-.241,13.452,5.519,15.407Z" style="fill:#9ddcf9; opacity:.4; stroke-width:0px;"/></pattern><mask id="mask-2" x="0" y=".005" width="1024" height="1339.495" maskUnits="userSpaceOnUse"><circle id="white-mask" cx="512" cy="512.003" r="511.999" style="fill:#f2f2f2; stroke-width:0px;"/></mask><filter id="luminosity-invert-3" x="0" y=".005" width="1024" height="1339.995" color-interpolation-filters="sRGB" filterUnits="userSpaceOnUse"><feColorMatrix result="cm" values="-1 0 0 0 1 0 -1 0 0 1 0 0 -1 0 1 0 0 0 1 0"/></filter><linearGradient id="gray-gradient-2" x1="149.962" y1="874.04" x2="874.038" y2="149.965" xlink:href="#gray-gradient"/><mask id="mask-3" x="0" y=".005" width="1024" height="1339.995" maskUnits="userSpaceOnUse"><g style="filter:url(#luminosity-invert-3);"><circle id="gray-mask-2" cx="512" cy="512.003" r="511.999" style="fill:url(#gray-gradient-2); stroke-width:0px;"/></g></mask></defs><g id="background"><g id="ellipse"><circle cx="512" cy="512" r="512" style="fill:url(#blue-gradient); stroke-width:0px;"/></g></g><g id="text_border"><g id="gray-cont-under"><g id="text-under"><path d="m558.869,682.422c-10.758,0-19.625-5.579-26.596-16.734-5.977-9.562-11.355-25.498-16.137-47.812l-10.758-51.398c-8.171-31.872-21.119-102.199-38.848-210.973l-59.766,180.193-17.631,56.777c-7.172,22.515-14.643,40.939-22.412,55.283-8.367,15.138-19.625,22.711-33.768,22.711-11.757,0-21.021-6.378-27.791-19.125-4.384-8.367-8.367-19.022-11.953-31.975l-8.666-33.17c-20.124-70.322-37.853-145.627-53.191-225.914l-10.758,53.49-38.549,157.781c-1.597,18.527-6.574,45.922-14.941,82.178-5.977,15.539-15.838,23.309-29.584,23.309-9.763,0-17.533-3.487-23.309-10.459-4.982-5.977-7.471-13.345-7.471-22.113,0-33.268,6.873-74.109,20.619-122.52l32.871-120.428,17.332-94.131c8.764-44.026,18.028-72.812,27.791-86.361,7.966-11.552,17.827-17.332,29.584-17.332,12.948,0,22.608,7.373,28.986,22.113,7.77,17.733,16.137,53.892,25.102,108.475,10.557,65.546,26.993,136.466,49.307,212.766,29.481-76.696,54.984-156.586,76.5-239.66l8.965-43.629c3.586-17.528,8.265-31.676,14.045-42.434,7.77-14.741,18.425-22.113,31.975-22.113,17.131,0,30.182,16.538,39.146,49.605,3.185,11.355,7.069,34.865,11.654,70.523,11.752,90.05,26.395,166.947,43.928,230.695l14.643,51.398c7.568,27.492,11.355,44.428,11.355,50.801,0,8.563-3.24,15.735-9.713,21.516-6.477,5.776-13.797,8.666-21.963,8.666Z" style="fill:#fff; stroke-width:0px;"/><path d="m888.477,677.342c-3.787,0-10.66-4.384-20.619-13.148-8.965-8.166-15.642-15.437-20.021-21.814-19.125,10.361-35.962,18.178-50.502,23.458-14.545,5.276-26.698,7.919-36.457,7.919-46.617,0-80.586-13.148-101.9-39.445-20.124-24.7-30.182-62.553-30.182-113.555,0-48.209,16.585-89.448,49.755-123.715,33.17-34.263,72.765-51.398,118.784-51.398,17.332,0,36.756,4.482,58.271,13.447,27.091,11.159,40.641,24.606,40.641,40.342,0,5.379-1.994,10.16-5.977,14.344-1.994,7.573-3.539,20.021-4.632,37.354-1.098,17.332-1.746,39.548-1.942,66.639-.201,24.705,1.494,44.227,5.08,58.57,1.989,8.769,8.265,26.297,18.826,52.594,1.392,3.586,3.684,8.867,6.873,15.838l1.793,5.08c0,7.966-2.792,14.54-8.367,19.723-5.58,5.179-12.056,7.77-19.424,7.77Zm-62.156-207.686c0-8.563.546-17.878,1.644-27.94,1.093-10.058,2.736-20.769,4.931-32.124-7.373-3.782-13.699-6.574-18.976-8.367-5.281-1.793-9.516-2.689-12.7-2.689-30.882,0-57.524,12.602-79.937,37.802-22.412,25.204-33.618,54.237-33.618,87.108,0,32.675,5.775,57.179,17.332,73.512,11.552,16.338,28.884,24.504,51.996,24.504,19.125,0,35.359-3.483,48.709-10.459,7.172-3.782,17.229-11.355,30.182-22.711-6.378-52.79-9.562-92.338-9.562-118.635Z" style="fill:#fff; stroke-width:0px;"/></g><circle id="ellipse-border-under" cx="512" cy="512" r="480" style="fill:none; stroke:#fff; stroke-miterlimit:10; stroke-width:64px;"/></g><g style="mask:url(#mask);"><g id="gray-cont"><g id="text"><path d="m558.869,682.422c-10.758,0-19.625-5.58-26.596-16.734-5.977-9.562-11.355-25.498-16.137-47.812l-10.758-51.398c-8.171-31.872-21.119-102.199-38.848-210.973l-59.766,180.193-17.631,56.777c-7.172,22.515-14.643,40.939-22.412,55.283-8.367,15.138-19.625,22.711-33.768,22.711-11.757,0-21.021-6.378-27.791-19.125-4.384-8.367-8.367-19.022-11.953-31.975l-8.666-33.17c-20.124-70.322-37.853-145.627-53.191-225.914l-10.758,53.49-38.549,157.781c-1.597,18.527-6.574,45.922-14.941,82.178-5.977,15.539-15.838,23.309-29.584,23.309-9.763,0-17.533-3.488-23.309-10.459-4.982-5.977-7.471-13.345-7.471-22.113,0-33.268,6.873-74.109,20.619-122.52l32.871-120.428,17.332-94.131c8.764-44.026,18.028-72.812,27.791-86.361,7.966-11.552,17.827-17.332,29.584-17.332,12.948,0,22.608,7.373,28.986,22.113,7.77,17.733,16.137,53.892,25.102,108.475,10.557,65.546,26.993,136.466,49.307,212.766,29.481-76.696,54.984-156.586,76.5-239.66l8.965-43.629c3.586-17.528,8.265-31.676,14.045-42.434,7.77-14.741,18.425-22.113,31.975-22.113,17.131,0,30.182,16.538,39.146,49.605,3.185,11.355,7.07,34.865,11.655,70.523,11.752,90.05,26.395,166.947,43.928,230.695l14.643,51.398c7.568,27.492,11.355,44.428,11.355,50.801,0,8.563-3.24,15.735-9.713,21.516-6.477,5.775-13.797,8.666-21.963,8.666Z" style="stroke-width:0px;"/><path d="m888.477,677.342c-3.787,0-10.66-4.385-20.619-13.148-8.965-8.166-15.642-15.437-20.021-21.814-19.125,10.361-35.962,18.178-50.502,23.458-14.545,5.276-26.698,7.919-36.457,7.919-46.617,0-80.586-13.148-101.9-39.445-20.124-24.7-30.182-62.553-30.182-113.555,0-48.209,16.585-89.448,49.755-123.715,33.17-34.263,72.765-51.398,118.784-51.398,17.332,0,36.756,4.482,58.271,13.447,27.091,11.159,40.641,24.606,40.641,40.342,0,5.379-1.994,10.16-5.977,14.344-1.994,7.573-3.539,20.021-4.632,37.354-1.098,17.332-1.746,39.548-1.942,66.639-.201,24.705,1.494,44.227,5.08,58.57,1.989,8.769,8.265,26.297,18.826,52.594,1.392,3.586,3.684,8.867,6.873,15.838l1.793,5.08c0,7.966-2.792,14.54-8.367,19.723-5.58,5.178-12.056,7.77-19.424,7.77Zm-62.156-207.686c0-8.563.546-17.878,1.644-27.94,1.093-10.058,2.736-20.769,4.931-32.124-7.373-3.782-13.699-6.574-18.976-8.367-5.281-1.793-9.516-2.689-12.7-2.689-30.882,0-57.524,12.602-79.937,37.802-22.412,25.204-33.618,54.237-33.618,87.108,0,32.675,5.775,57.179,17.332,73.512,11.552,16.338,28.884,24.504,51.996,24.504,19.125,0,35.359-3.483,48.709-10.459,7.172-3.782,17.229-11.355,30.182-22.711-6.378-52.79-9.562-92.338-9.562-118.635Z" style="stroke-width:0px;"/></g><circle id="ellipse-border" cx="512" cy="512" r="512" style="fill:none; filter:url(#drop-shadow-1); stroke:#000; stroke-miterlimit:10; stroke-width:128px;"/></g></g></g><g id="frog"><g style="mask:url(#mask-1);"><path id="frog-backround" d="m879.573,1300.572c-74.036,61.524-184.553-12.43-246.824-165.174-7.445-18.267-13.866-36.837-19.27-55.477h-202.957c-5.405,18.64-11.825,37.21-19.27,55.477-62.271,152.743-172.787,226.698-246.824,165.174-74.046-61.524-83.582-235.226-21.311-387.969,62.271-152.744,172.787-226.698,246.824-165.174,10.959,9.11,20.505,20.667,28.607,34.251h226.906c8.102-13.584,17.648-25.141,28.607-34.251,74.036-61.524,184.553,12.431,246.824,165.174,62.271,152.743,52.735,326.445-21.311,387.969Z" style="fill:url(#_Джайв); stroke-width:0px;"/></g><g style="mask:url(#mask-2);"><path id="frog-border-under" d="m879.573,1302.202c-74.036,61.886-184.553-12.504-246.824-166.148-7.445-18.375-13.866-37.054-19.27-55.804h-202.957c-5.405,18.75-11.825,37.429-19.27,55.804-62.271,153.644-172.787,228.034-246.824,166.148-74.046-61.886-83.582-236.612-21.311-390.256,62.271-153.644,172.787-228.034,246.824-166.148,10.959,9.164,20.505,20.789,28.607,34.453h226.906c8.102-13.664,17.648-25.289,28.607-34.453,74.036-61.886,184.553,12.504,246.824,166.148,62.271,153.644,52.735,328.369-21.311,390.256Z" style="fill:none; stroke:#fff; stroke-linecap:round; stroke-linejoin:round; stroke-width:31px;"/></g><g style="mask:url(#mask-3);"><path id="frog-border" d="m879.573,1302.202c-74.036,61.886-184.553-12.504-246.824-166.148-7.445-18.375-13.866-37.054-19.27-55.804h-202.957c-5.405,18.75-11.825,37.429-19.27,55.804-62.271,153.644-172.787,228.034-246.824,166.148-74.046-61.886-83.582-236.612-21.311-390.256,62.271-153.644,172.787-228.034,246.824-166.148,10.959,9.164,20.505,20.789,28.607,34.453h226.906c8.102-13.664,17.648-25.289,28.607-34.453,74.036-61.886,184.553,12.504,246.824,166.148,62.271,153.644,52.735,328.369-21.311,390.256Z" style="fill:none; stroke:#000; stroke-linecap:round; stroke-linejoin:round; stroke-width:32px;"/></g></g></svg>