<?xml version="1.0" encoding="UTF-8"?><svg xmlns="http://www.w3.org/2000/svg" width="1024" height="1024" xmlns:xlink="http://www.w3.org/1999/xlink" viewBox="0 0 1024 1024"><defs><linearGradient id="blue-gradient" x1="149.96" y1="874.04" x2="874.04" y2="149.96" gradientUnits="userSpaceOnUse"><stop offset="0" stop-color="#cce0f4"/><stop offset=".25" stop-color="#80ccff"/><stop offset=".55" stop-color="#09f"/><stop offset=".8" stop-color="#007acc"/><stop offset="1" stop-color="#004d80"/></linearGradient><filter id="luminosity-invert" x="-120" y="-104.16" width="1248" height="1248.24" color-interpolation-filters="sRGB" filterUnits="userSpaceOnUse"><feColorMatrix result="cm" values="-1 0 0 0 1 0 -1 0 0 1 0 0 -1 0 1 0 0 0 1 0"/></filter><linearGradient id="gray-gradient" x1="149.96" y1="874.04" x2="874.04" y2="149.96" gradientUnits="userSpaceOnUse"><stop offset="0" stop-color="#262626"/><stop offset=".25" stop-color="#333"/><stop offset=".55" stop-color="#404040"/><stop offset=".8" stop-color="#595959"/><stop offset="1" stop-color="#737373"/></linearGradient><mask id="mask" x="-120" y="-104.16" width="1248" height="1248.24" maskUnits="userSpaceOnUse"><g style="filter:url(#luminosity-invert);"><circle id="gray-mask" cx="512" cy="512" r="512" style="fill:url(#gray-gradient); stroke-width:0px;"/></g></mask><filter id="drop-shadow-2" filterUnits="userSpaceOnUse"><feOffset dx="-8" dy="8"/><feGaussianBlur result="blur" stdDeviation="8"/><feFlood flood-color="#000" flood-opacity=".8"/><feComposite in2="blur" operator="in"/><feComposite in="SourceGraphic"/></filter><filter id="drop-shadow-3" filterUnits="userSpaceOnUse"><feOffset dx="-8" dy="8"/><feGaussianBlur result="blur-2" stdDeviation="16"/><feFlood flood-color="#000" flood-opacity=".8"/><feComposite in2="blur-2" operator="in"/><feComposite in="SourceGraphic"/></filter></defs><g id="background"><g id="ellipse"><circle cx="512" cy="512" r="512" style="fill:url(#blue-gradient); stroke-width:0px;"/></g></g><g id="text_border"><g style="mask:url(#mask);"><g id="gray-cont"><g id="text" style="filter:url(#drop-shadow-2);"><path d="m567.41,698.75c-10.12,0-18.47-5.25-25.03-15.75-5.62-9-10.69-24-15.19-45l-10.12-48.38c-7.69-30-19.88-96.19-36.56-198.56l-56.25,169.59-16.59,53.44c-6.75,21.19-13.78,38.53-21.09,52.03-7.88,14.25-18.47,21.38-31.78,21.38-11.07,0-19.78-6-26.16-18-4.13-7.88-7.88-17.9-11.25-30.09l-8.16-31.22c-18.94-66.19-35.63-137.06-50.06-212.62l-10.12,50.34-36.28,148.5c-1.5,17.44-6.19,43.22-14.06,77.34-5.62,14.62-14.91,21.94-27.84,21.94-9.19,0-16.5-3.28-21.94-9.84-4.69-5.62-7.03-12.56-7.03-20.81,0-31.31,6.47-69.75,19.41-115.31l30.94-113.34,16.31-88.59c8.25-41.44,16.97-68.53,26.16-81.28,7.5-10.87,16.78-16.31,27.84-16.31,12.19,0,21.28,6.94,27.28,20.81,7.31,16.69,15.19,50.72,23.62,102.09,9.94,61.69,25.4,128.44,46.41,200.25,27.75-72.18,51.75-147.38,72-225.56l8.44-41.06c3.38-16.5,7.78-29.81,13.22-39.94,7.31-13.87,17.34-20.81,30.09-20.81,16.12,0,28.41,15.57,36.84,46.69,3,10.69,6.65,32.81,10.97,66.38,11.06,84.75,24.84,157.13,41.34,217.12l13.78,48.38c7.12,25.88,10.69,41.81,10.69,47.81,0,8.06-3.05,14.81-9.14,20.25-6.1,5.44-12.99,8.16-20.67,8.16Z" style="stroke-width:0px;"/><path d="m877.62,693.97c-3.56,0-10.03-4.13-19.41-12.38-8.44-7.69-14.72-14.53-18.84-20.53-18,9.75-33.85,17.11-47.53,22.08-13.69,4.97-25.13,7.45-34.31,7.45-43.88,0-75.85-12.38-95.91-37.12-18.94-23.25-28.41-58.87-28.41-106.88,0-45.37,15.61-84.19,46.83-116.44,31.22-32.25,68.48-48.38,111.8-48.38,16.31,0,34.59,4.22,54.84,12.66,25.5,10.5,38.25,23.16,38.25,37.97,0,5.06-1.88,9.56-5.62,13.5-1.88,7.13-3.33,18.84-4.36,35.16-1.03,16.31-1.64,37.22-1.83,62.72-.19,23.25,1.41,41.62,4.78,55.12,1.87,8.25,7.78,24.75,17.72,49.5,1.31,3.38,3.47,8.35,6.47,14.91l1.69,4.78c0,7.5-2.63,13.68-7.88,18.56-5.25,4.87-11.35,7.31-18.28,7.31Zm-58.5-195.47c0-8.06.51-16.83,1.55-26.3,1.03-9.47,2.58-19.55,4.64-30.23-6.94-3.56-12.89-6.19-17.86-7.88-4.97-1.69-8.96-2.53-11.95-2.53-29.07,0-54.14,11.86-75.23,35.58-21.09,23.72-31.64,51.05-31.64,81.98s5.44,53.82,16.31,69.19c10.87,15.38,27.18,23.06,48.94,23.06,18,0,33.28-3.28,45.84-9.84,6.75-3.56,16.22-10.69,28.41-21.38-6-49.68-9-86.91-9-111.66Z" style="stroke-width:0px;"/></g><circle id="ellipse-border" cx="512" cy="512" r="512" style="fill:none; filter:url(#drop-shadow-3); stroke:#000; stroke-miterlimit:10; stroke-width:128px;"/></g></g></g></svg>