<?xml version="1.0" encoding="UTF-8"?><svg xmlns="http://www.w3.org/2000/svg" width="1024" height="1024" xmlns:xlink="http://www.w3.org/1999/xlink" viewBox="0 0 1024 1024"><defs><linearGradient id="blue-gradient" x1="149.96" y1="874.04" x2="874.04" y2="149.96" gradientUnits="userSpaceOnUse"><stop offset="0" stop-color="#cce0f4"/><stop offset=".25" stop-color="#80ccff"/><stop offset=".55" stop-color="#09f"/><stop offset=".8" stop-color="#007acc"/><stop offset="1" stop-color="#004d80"/></linearGradient><filter id="luminosity-invert" x="-120" y="-104.16" width="1248" height="1248.24" color-interpolation-filters="sRGB" filterUnits="userSpaceOnUse"><feColorMatrix result="cm" values="-1 0 0 0 1 0 -1 0 0 1 0 0 -1 0 1 0 0 0 1 0"/></filter><linearGradient id="gray-gradient" x1="149.96" y1="874.04" x2="874.04" y2="149.96" gradientUnits="userSpaceOnUse"><stop offset="0" stop-color="#262626"/><stop offset=".25" stop-color="#333"/><stop offset=".55" stop-color="#404040"/><stop offset=".8" stop-color="#595959"/><stop offset="1" stop-color="#737373"/></linearGradient><mask id="mask" x="-120" y="-104.16" width="1248" height="1248.24" maskUnits="userSpaceOnUse"><g style="filter:url(#luminosity-invert);"><circle id="gray-mask" cx="512" cy="512" r="512" style="fill:url(#gray-gradient); stroke-width:0px;"/></g></mask><filter id="drop-shadow-2" filterUnits="userSpaceOnUse"><feOffset dx="-8" dy="8"/><feGaussianBlur result="blur" stdDeviation="8"/><feFlood flood-color="#000" flood-opacity=".8"/><feComposite in2="blur" operator="in"/><feComposite in="SourceGraphic"/></filter><filter id="drop-shadow-3" filterUnits="userSpaceOnUse"><feOffset dx="-8" dy="8"/><feGaussianBlur result="blur-2" stdDeviation="16"/><feFlood flood-color="#000" flood-opacity=".8"/><feComposite in2="blur-2" operator="in"/><feComposite in="SourceGraphic"/></filter></defs><g id="background"><g id="ellipse"><circle cx="512" cy="512" r="512" style="fill:url(#blue-gradient); stroke-width:0px;"/></g></g><g id="content"><ellipse cx="512" cy="1024" rx="512" ry="256" style="fill:#f2f2f2; stroke-width:0px;"/></g><g id="text_border"><g style="mask:url(#mask);"><g id="gray-cont"><g id="text" style="filter:url(#drop-shadow-2);"><path d="m555.04,678.12c-10.69-.19-19.4-5.88-26.13-17.08-5.77-9.6-10.84-25.53-15.2-47.77l-9.79-51.24c-7.56-31.8-19.21-101.88-34.93-210.24l-62.49,177.95-18.5,56.09c-7.51,22.24-15.25,40.41-23.22,54.53-8.57,14.89-19.89,22.22-33.94,21.97-11.68-.2-20.77-6.7-27.27-19.48-4.21-8.39-7.98-19.04-11.32-31.97l-8.03-33.1c-18.77-70.2-35.07-145.31-48.92-225.33l-11.61,52.95-41.03,156.06c-1.91,18.38-7.33,45.5-16.27,81.37-6.21,15.33-16.14,22.88-29.79,22.64-9.7-.17-17.35-3.77-22.97-10.79-4.85-6.02-7.19-13.38-7.04-22.09.58-33.05,8.11-73.5,22.61-121.34l34.74-119.05,18.85-93.2c9.47-43.58,19.17-72.01,29.1-85.3,8.11-11.34,18.01-16.91,29.69-16.7,12.86.22,22.33,7.72,28.41,22.47,7.41,17.75,15.09,53.81,23.05,108.18,9.35,65.29,24.45,136.02,45.29,212.2,30.61-75.67,57.33-154.59,80.14-236.73l9.66-43.18c3.87-17.35,8.76-31.32,14.69-41.91,7.97-14.51,18.69-21.65,32.14-21.41,17.02.3,29.69,16.95,38.02,49.95,2.97,11.33,6.42,34.75,10.35,70.25,10.11,89.65,23.32,166.29,39.63,229.91l13.65,51.31c7.04,27.44,10.51,44.33,10.4,50.66-.15,8.51-3.49,15.58-10.02,21.2-6.53,5.62-13.86,8.37-21.97,8.23Z" style="stroke-width:0px;"/><path d="m882.53,678.78c-3.76-.07-10.51-4.54-20.25-13.42-8.76-8.27-15.27-15.6-19.51-22.02-19.18,9.96-36.04,17.43-50.57,22.43-14.54,4.99-26.66,7.4-36.35,7.23-46.31-.81-79.82-14.46-100.53-40.95-19.56-24.88-28.9-62.66-28.01-113.32.84-47.89,18.02-88.56,51.57-122.02,33.54-33.46,73.17-49.79,118.88-49,17.22.3,36.43,5.09,57.65,14.37,26.72,11.55,39.94,25.15,39.67,40.78-.09,5.34-2.16,10.06-6.18,14.14-2.11,7.49-3.86,19.83-5.25,37.02-1.39,17.2-2.42,39.25-3.09,66.16-.63,24.54.72,43.96,4.03,58.27,1.82,8.75,7.75,26.26,17.79,52.57,1.32,3.59,3.51,8.87,6.55,15.85l1.69,5.08c-.14,7.91-3.02,14.39-8.65,19.45-5.63,5.05-12.11,7.51-19.43,7.38Zm-58.14-207.37c.15-8.51.85-17.75,2.12-27.73,1.26-9.97,3.08-20.58,5.45-31.82-7.26-3.88-13.49-6.77-18.7-8.64-5.21-1.87-9.41-2.84-12.57-2.89-30.67-.54-57.36,11.52-80.06,36.16-22.7,24.65-34.33,53.29-34.9,85.94-.57,32.46,4.75,56.9,15.94,73.32,11.19,16.43,28.26,24.84,51.22,25.24,19,.33,35.18-2.85,48.56-9.54,7.19-3.63,17.31-10.98,30.37-22.04-5.42-52.55-7.9-91.89-7.44-118.01Z" style="stroke-width:0px;"/></g><circle id="ellipse-border" cx="512" cy="512" r="512" style="fill:none; filter:url(#drop-shadow-3); stroke:#000; stroke-miterlimit:10; stroke-width:128px;"/></g></g></g></svg>