<?xml version="1.0" encoding="UTF-8"?><svg xmlns="http://www.w3.org/2000/svg" width="1024" height="1024" xmlns:xlink="http://www.w3.org/1999/xlink" viewBox="0 0 1024 1024"><defs><linearGradient id="blue-gradient" x1="149.96" y1="874.04" x2="874.04" y2="149.96" gradientUnits="userSpaceOnUse"><stop offset="0" stop-color="#cce0f4"/><stop offset=".25" stop-color="#80ccff"/><stop offset=".55" stop-color="#09f"/><stop offset=".8" stop-color="#007acc"/><stop offset="1" stop-color="#004d80"/></linearGradient><filter id="luminosity-invert" x="-120" y="-104.16" width="1248" height="1248.24" color-interpolation-filters="sRGB" filterUnits="userSpaceOnUse"><feColorMatrix result="cm" values="-1 0 0 0 1 0 -1 0 0 1 0 0 -1 0 1 0 0 0 1 0"/></filter><linearGradient id="gray-gradient" x1="149.96" y1="874.04" x2="874.04" y2="149.96" gradientUnits="userSpaceOnUse"><stop offset="0" stop-color="#262626"/><stop offset=".25" stop-color="#333"/><stop offset=".55" stop-color="#404040"/><stop offset=".8" stop-color="#595959"/><stop offset="1" stop-color="#737373"/></linearGradient><mask id="mask" x="-120" y="-104.16" width="1248" height="1248.24" maskUnits="userSpaceOnUse"><g style="filter:url(#luminosity-invert);"><circle id="gray-mask" cx="512" cy="512" r="512" style="fill:url(#gray-gradient); stroke-width:0px;"/></g></mask><filter id="drop-shadow-1" filterUnits="userSpaceOnUse"><feOffset dx="-8" dy="8"/><feGaussianBlur result="blur" stdDeviation="16"/><feFlood flood-color="#000" flood-opacity=".8"/><feComposite in2="blur" operator="in"/><feComposite in="SourceGraphic"/></filter><filter id="luminosity-invert-2" x="0" y="0" width="1024" height="1278.5" color-interpolation-filters="sRGB" filterUnits="userSpaceOnUse"><feColorMatrix result="cm" values="-1 0 0 0 1 0 -1 0 0 1 0 0 -1 0 1 0 0 0 1 0"/></filter><mask id="mask-1" x="0" y="0" width="1024" height="1278.5" maskUnits="userSpaceOnUse"><g style="filter:url(#luminosity-invert-2);"><circle id="green-mask" cx="512" cy="512" r="512" style="stroke-width:0px;"/></g></mask><linearGradient id="blue-gradient-2" x1="230.98" y1="788.5" x2="793.02" y2="1350.54" xlink:href="#blue-gradient"/><mask id="mask-2" x="0" y="0" width="1024" height="1295.49" maskUnits="userSpaceOnUse"><circle id="white-mask" cx="512" cy="512" r="512" style="fill:#f2f2f2; stroke-width:0px;"/></mask><filter id="luminosity-invert-3" x="0" y="0" width="1024" height="1295.99" color-interpolation-filters="sRGB" filterUnits="userSpaceOnUse"><feColorMatrix result="cm" values="-1 0 0 0 1 0 -1 0 0 1 0 0 -1 0 1 0 0 0 1 0"/></filter><linearGradient id="gray-gradient-2" x1="149.96" y1="874.04" x2="874.04" y2="149.96" xlink:href="#gray-gradient"/><mask id="mask-3" x="0" y="0" width="1024" height="1295.99" maskUnits="userSpaceOnUse"><g style="filter:url(#luminosity-invert-3);"><circle id="gray-mask-2" cx="512" cy="512" r="512" style="fill:url(#gray-gradient-2); stroke-width:0px;"/></g></mask></defs><g id="background"><g id="ellipse"><circle cx="512" cy="512" r="512" style="fill:url(#blue-gradient); stroke-width:0px;"/></g></g><g id="text_border"><g id="gray-cont-under"><g id="text-under"><path d="m558.87,698.42c-10.76,0-19.62-5.58-26.6-16.73-5.98-9.56-11.36-25.5-16.14-47.81l-10.76-51.4c-8.17-31.87-21.12-102.2-38.85-210.97l-59.77,180.19-17.63,56.78c-7.17,22.51-14.64,40.94-22.41,55.28-8.37,15.14-19.62,22.71-33.77,22.71-11.76,0-21.02-6.38-27.79-19.12-4.38-8.37-8.37-19.02-11.95-31.97l-8.67-33.17c-20.12-70.32-37.85-145.63-53.19-225.91l-10.76,53.49-38.55,157.78c-1.6,18.53-6.57,45.92-14.94,82.18-5.98,15.54-15.84,23.31-29.58,23.31-9.76,0-17.53-3.49-23.31-10.46-4.98-5.98-7.47-13.34-7.47-22.11,0-33.27,6.87-74.11,20.62-122.52l32.87-120.43,17.33-94.13c8.76-44.03,18.03-72.81,27.79-86.36,7.97-11.55,17.83-17.33,29.58-17.33,12.95,0,22.61,7.37,28.99,22.11,7.77,17.73,16.14,53.89,25.1,108.47,10.56,65.55,26.99,136.47,49.31,212.77,29.48-76.7,54.98-156.59,76.5-239.66l8.96-43.63c3.59-17.53,8.26-31.68,14.04-42.43,7.77-14.74,18.42-22.11,31.97-22.11,17.13,0,30.18,16.54,39.15,49.61,3.18,11.36,7.07,34.86,11.65,70.52,11.75,90.05,26.39,166.95,43.93,230.7l14.64,51.4c7.57,27.49,11.36,44.43,11.36,50.8,0,8.56-3.24,15.74-9.71,21.52-6.48,5.78-13.8,8.67-21.96,8.67Z" style="fill:#fff; stroke-width:0px;"/><path d="m888.48,693.34c-3.79,0-10.66-4.38-20.62-13.15-8.96-8.17-15.64-15.44-20.02-21.81-19.12,10.36-35.96,18.18-50.5,23.46-14.54,5.28-26.7,7.92-36.46,7.92-46.62,0-80.59-13.15-101.9-39.45-20.12-24.7-30.18-62.55-30.18-113.55,0-48.21,16.58-89.45,49.75-123.71,33.17-34.26,72.76-51.4,118.78-51.4,17.33,0,36.76,4.48,58.27,13.45,27.09,11.16,40.64,24.61,40.64,40.34,0,5.38-1.99,10.16-5.98,14.34-1.99,7.57-3.54,20.02-4.63,37.35-1.1,17.33-1.75,39.55-1.94,66.64-.2,24.71,1.49,44.23,5.08,58.57,1.99,8.77,8.26,26.3,18.83,52.59,1.39,3.59,3.68,8.87,6.87,15.84l1.79,5.08c0,7.97-2.79,14.54-8.37,19.72-5.58,5.18-12.06,7.77-19.42,7.77Zm-62.16-207.69c0-8.56.55-17.88,1.64-27.94,1.09-10.06,2.74-20.77,4.93-32.12-7.37-3.78-13.7-6.57-18.98-8.37-5.28-1.79-9.52-2.69-12.7-2.69-30.88,0-57.52,12.6-79.94,37.8-22.41,25.2-33.62,54.24-33.62,87.11s5.78,57.18,17.33,73.51c11.55,16.34,28.88,24.5,52,24.5,19.12,0,35.36-3.48,48.71-10.46,7.17-3.78,17.23-11.36,30.18-22.71-6.38-52.79-9.56-92.34-9.56-118.63Z" style="fill:#fff; stroke-width:0px;"/></g><circle id="ellipse-border-under" cx="512" cy="512" r="480" style="fill:none; stroke:#fff; stroke-miterlimit:10; stroke-width:64px;"/></g><g style="mask:url(#mask);"><g id="gray-cont"><g id="text"><path d="m558.87,698.42c-10.76,0-19.62-5.58-26.6-16.73-5.98-9.56-11.36-25.5-16.14-47.81l-10.76-51.4c-8.17-31.87-21.12-102.2-38.85-210.97l-59.77,180.19-17.63,56.78c-7.17,22.51-14.64,40.94-22.41,55.28-8.37,15.14-19.62,22.71-33.77,22.71-11.76,0-21.02-6.38-27.79-19.12-4.38-8.37-8.37-19.02-11.95-31.97l-8.67-33.17c-20.12-70.32-37.85-145.63-53.19-225.91l-10.76,53.49-38.55,157.78c-1.6,18.53-6.57,45.92-14.94,82.18-5.98,15.54-15.84,23.31-29.58,23.31-9.76,0-17.53-3.49-23.31-10.46-4.98-5.98-7.47-13.34-7.47-22.11,0-33.27,6.87-74.11,20.62-122.52l32.87-120.43,17.33-94.13c8.76-44.03,18.03-72.81,27.79-86.36,7.97-11.55,17.83-17.33,29.58-17.33,12.95,0,22.61,7.37,28.99,22.11,7.77,17.73,16.14,53.89,25.1,108.47,10.56,65.55,26.99,136.47,49.31,212.77,29.48-76.7,54.98-156.59,76.5-239.66l8.96-43.63c3.59-17.53,8.26-31.68,14.04-42.43,7.77-14.74,18.42-22.11,31.97-22.11,17.13,0,30.18,16.54,39.15,49.61,3.18,11.36,7.07,34.86,11.65,70.52,11.75,90.05,26.39,166.95,43.93,230.7l14.64,51.4c7.57,27.49,11.36,44.43,11.36,50.8,0,8.56-3.24,15.74-9.71,21.52-6.48,5.78-13.8,8.67-21.96,8.67Z" style="stroke-width:0px;"/><path d="m888.48,693.34c-3.79,0-10.66-4.38-20.62-13.15-8.96-8.17-15.64-15.44-20.02-21.81-19.12,10.36-35.96,18.18-50.5,23.46-14.54,5.28-26.7,7.92-36.46,7.92-46.62,0-80.59-13.15-101.9-39.45-20.12-24.7-30.18-62.55-30.18-113.55,0-48.21,16.58-89.45,49.75-123.71,33.17-34.26,72.76-51.4,118.78-51.4,17.33,0,36.76,4.48,58.27,13.45,27.09,11.16,40.64,24.61,40.64,40.34,0,5.38-1.99,10.16-5.98,14.34-1.99,7.57-3.54,20.02-4.63,37.35-1.1,17.33-1.75,39.55-1.94,66.64-.2,24.71,1.49,44.23,5.08,58.57,1.99,8.77,8.26,26.3,18.83,52.59,1.39,3.59,3.68,8.87,6.87,15.84l1.79,5.08c0,7.97-2.79,14.54-8.37,19.72-5.58,5.18-12.06,7.77-19.42,7.77Zm-62.16-207.69c0-8.56.55-17.88,1.64-27.94,1.09-10.06,2.74-20.77,4.93-32.12-7.37-3.78-13.7-6.57-18.98-8.37-5.28-1.79-9.52-2.69-12.7-2.69-30.88,0-57.52,12.6-79.94,37.8-22.41,25.2-33.62,54.24-33.62,87.11s5.78,57.18,17.33,73.51c11.55,16.34,28.88,24.5,52,24.5,19.12,0,35.36-3.48,48.71-10.46,7.17-3.78,17.23-11.36,30.18-22.71-6.38-52.79-9.56-92.34-9.56-118.63Z" style="stroke-width:0px;"/></g><circle id="ellipse-border" cx="512" cy="512" r="512" style="fill:none; filter:url(#drop-shadow-1); stroke:#000; stroke-miterlimit:10; stroke-width:128px;"/></g></g></g><g id="frog"><g style="mask:url(#mask-1);"><path id="frog-backround" d="m881.28,1260.01c-74.38,52.5-185.41-10.61-247.97-140.95-7.48-15.59-13.93-31.43-19.36-47.34h-203.9c-5.43,15.91-11.88,31.75-19.36,47.34-62.56,130.34-173.59,193.45-247.97,140.95-74.39-52.5-83.97-200.73-21.41-331.07,62.56-130.34,173.59-193.45,247.97-140.95,11.01,7.77,20.6,17.64,28.74,29.23h227.96c8.14-11.59,17.73-21.45,28.74-29.23,74.38-52.5,185.41,10.61,247.97,140.95,62.56,130.34,52.98,278.57-21.41,331.07Z" style="fill:url(#blue-gradient-2); stroke-width:0px;"/></g><g style="mask:url(#mask-2);"><path id="frog-border-under" d="m881.28,1261.4c-74.38,52.81-185.41-10.67-247.97-141.78-7.48-15.68-13.93-31.62-19.36-47.62h-203.9c-5.43,16-11.88,31.94-19.36,47.62-62.56,131.11-173.59,194.59-247.97,141.78-74.39-52.81-83.97-201.91-21.41-333.02,62.56-131.11,173.59-194.59,247.97-141.78,11.01,7.82,20.6,17.74,28.74,29.4h227.96c8.14-11.66,17.73-21.58,28.74-29.4,74.38-52.81,185.41,10.67,247.97,141.78,62.56,131.11,52.98,280.21-21.41,333.02Z" style="fill:none; stroke:#fff; stroke-miterlimit:10; stroke-width:31px;"/></g><g style="mask:url(#mask-3);"><path id="frog-border" d="m881.28,1261.4c-74.38,52.81-185.41-10.67-247.97-141.78-7.48-15.68-13.93-31.62-19.36-47.62h-203.9c-5.43,16-11.88,31.94-19.36,47.62-62.56,131.11-173.59,194.59-247.97,141.78-74.39-52.81-83.97-201.91-21.41-333.02,62.56-131.11,173.59-194.59,247.97-141.78,11.01,7.82,20.6,17.74,28.74,29.4h227.96c8.14-11.66,17.73-21.58,28.74-29.4,74.38-52.81,185.41,10.67,247.97,141.78,62.56,131.11,52.98,280.21-21.41,333.02Z" style="fill:none; stroke:#000; stroke-miterlimit:10; stroke-width:32px;"/></g></g></svg>